<svg version="1.1" viewBox="0.0 0.0 750.0 405.0" fill="none" stroke="none" stroke-linecap="square" stroke-miterlimit="10" width="750" height="405" xmlns:xlink="http://www.w3.org/1999/xlink" xmlns="http://www.w3.org/2000/svg"><path fill="#ffffff" d="M0 0L750.0 0L750.0 405.0L0 405.0L0 0Z" fill-rule="nonzero"/><path fill="#ffffff" d="M0 0L750.0 0L750.0 405.0L0 405.0L0 0Z" fill-rule="nonzero"/><path stroke="#cccccc" stroke-width="1.0" stroke-linecap="butt" d="M375.0 203.0C375.0 203.0 375.0 203.0 375.0 203.0C375.0 203.0 375.0 203.0 375.0 203.0C375.0 203.0 375.0 203.0 375.0 203.0C375.0 203.0 375.0 203.0 375.0 203.0" fill-rule="nonzero"/><path fill="#000000" d="M372.0625 196.35938Q372.0625 198.26562 371.40625 199.20312Q370.76562 200.125 369.375 200.125Q368.01562 200.125 367.35938 199.21875Q366.70312 198.3125 366.67188 196.5L366.67188 195.0625Q366.67188 193.17188 367.3125 192.26562Q367.96875 191.34375 369.35938 191.34375Q370.73438 191.34375 371.39062 192.23438Q372.04688 193.10938 372.0625 194.95312L372.0625 196.35938ZM370.96875 194.875Q370.96875 193.5 370.57812 192.875Q370.20312 192.23438 369.35938 192.23438Q368.53125 192.23438 368.14062 192.875Q367.76562 193.5 367.76562 194.79688L367.76562 196.53125Q367.76562 197.90625 368.15625 198.57812Q368.5625 199.23438 369.375 199.23438Q370.17188 199.23438 370.5625 198.60938Q370.95312 197.98438 370.96875 196.65625L370.96875 194.875Z" fill-rule="nonzero"/><path stroke="#cccccc" stroke-width="1.0" stroke-linecap="butt" d="M417.625 203.0C417.625 179.45886 398.54114 160.375 375.0 160.375C351.45886 160.375 332.375 179.45886 332.375 203.0C332.375 226.54114 351.45886 245.625 375.0 245.625C398.54114 245.625 417.625 226.54114 417.625 203.0" fill-rule="nonzero"/><path fill="#000000" d="M372.29688 157.375L366.70312 157.375L366.70312 156.59375L369.65625 153.3125Q370.3125 152.5625 370.5625 152.10938Q370.8125 151.64062 370.8125 151.14062Q370.8125 150.46875 370.40625 150.04688Q370.01562 149.60938 369.32812 149.60938Q368.53125 149.60938 368.07812 150.07812Q367.625 150.53125 367.625 151.35938L366.54688 151.35938Q366.54688 150.17188 367.29688 149.45312Q368.0625 148.71875 369.32812 148.71875Q370.53125 148.71875 371.21875 149.34375Q371.90625 149.96875 371.90625 151.01562Q371.90625 152.26562 370.29688 154.01562L368.01562 156.48438L372.29688 156.48438L372.29688 157.375Z" fill-rule="nonzero"/><path stroke="#cccccc" stroke-width="1.0" stroke-linecap="butt" d="M460.25 203.0C460.25 155.91772 422.08228 117.75 375.0 117.75C327.91772 117.75 289.75 155.91772 289.75 203.0C289.75 250.08228 327.91772 288.25 375.0 288.25C422.08228 288.25 460.25 250.08228 460.25 203.0" fill-rule="nonzero"/><path fill="#000000" d="M371.28125 111.890625L372.46875 111.890625L372.46875 112.765625L371.28125 112.765625L371.28125 114.75L370.20312 114.75L370.20312 112.765625L366.3125 112.765625L366.3125 112.125L370.125 106.21875L371.28125 106.21875L371.28125 111.890625ZM367.54688 111.890625L370.20312 111.890625L370.20312 107.703125L370.0625 107.9375L367.54688 111.890625Z" fill-rule="nonzero"/><path stroke="#cccccc" stroke-width="1.0" stroke-linecap="butt" d="M502.875 203.0C502.875 132.37659 445.6234 75.125 375.0 75.125C304.3766 75.125 247.125 132.37659 247.125 203.0C247.125 273.6234 304.3766 330.875 375.0 330.875C445.6234 330.875 502.875 273.6234 502.875 203.0" fill-rule="nonzero"/><path fill="#000000" d="M370.96875 63.59375L370.96875 64.5L370.76562 64.5Q369.5 64.53125 368.75 65.265625Q368.0 65.984375 367.875 67.296875Q368.5625 66.53125 369.71875 66.53125Q370.82812 66.53125 371.5 67.3125Q372.17188 68.09375 372.17188 69.34375Q372.17188 70.65625 371.45312 71.453125Q370.73438 72.25 369.51562 72.25Q368.29688 72.25 367.53125 71.3125Q366.78125 70.359375 366.78125 68.875L366.78125 68.46875Q366.78125 66.109375 367.78125 64.859375Q368.78125 63.609375 370.76562 63.59375L370.96875 63.59375ZM369.54688 67.4375Q368.98438 67.4375 368.51562 67.765625Q368.04688 68.09375 367.85938 68.609375L367.85938 69.0Q367.85938 70.0625 368.32812 70.703125Q368.8125 71.34375 369.51562 71.34375Q370.25 71.34375 370.67188 70.8125Q371.09375 70.265625 371.09375 69.390625Q371.09375 68.515625 370.67188 67.984375Q370.25 67.4375 369.54688 67.4375Z" fill-rule="nonzero"/><path stroke="#cccccc" stroke-width="1.0" stroke-linecap="butt" d="M545.5 203.0C545.5 108.83545 469.16455 32.5 375.0 32.5C280.83545 32.5 204.5 108.83545 204.5 203.0C204.5 297.16455 280.83545 373.5 375.0 373.5C469.16455 373.5 545.5 297.16455 545.5 203.0" fill-rule="nonzero"/><path fill="#000000" d="M371.89062 23.1875Q371.89062 23.828125 371.54688 24.328125Q371.20312 24.828125 370.64062 25.109375Q371.29688 25.390625 371.6875 25.953125Q372.07812 26.5 372.07812 27.203125Q372.07812 28.296875 371.32812 28.96875Q370.59375 29.625 369.375 29.625Q368.14062 29.625 367.39062 28.96875Q366.65625 28.296875 366.65625 27.203125Q366.65625 26.5 367.03125 25.953125Q367.40625 25.390625 368.07812 25.109375Q367.51562 24.828125 367.1875 24.328125Q366.85938 23.828125 366.85938 23.1875Q366.85938 22.109375 367.54688 21.484375Q368.23438 20.84375 369.375 20.84375Q370.5 20.84375 371.1875 21.484375Q371.89062 22.109375 371.89062 23.1875ZM371.0 27.171875Q371.0 26.453125 370.54688 26.015625Q370.09375 25.5625 369.35938 25.5625Q368.625 25.5625 368.17188 26.015625Q367.73438 26.453125 367.73438 27.1875Q367.73438 27.90625 368.17188 28.328125Q368.60938 28.734375 369.375 28.734375Q370.125 28.734375 370.5625 28.3125Q371.0 27.890625 371.0 27.171875ZM369.375 21.734375Q368.73438 21.734375 368.32812 22.140625Q367.9375 22.53125 367.9375 23.21875Q367.9375 23.859375 368.32812 24.265625Q368.71875 24.671875 369.35938 24.671875Q370.01562 24.671875 370.40625 24.265625Q370.79688 23.859375 370.79688 23.21875Q370.79688 22.5625 370.39062 22.15625Q369.98438 21.734375 369.375 21.734375Z" fill-rule="nonzero"/><path stroke="#cccccc" stroke-width="1.0" stroke-linecap="butt" d="M375.0 203.0L375.0 33.0" fill-rule="nonzero"/><path stroke="#cccccc" stroke-width="1.0" stroke-linecap="butt" d="M375.0 203.0L496.0 82.0" fill-rule="nonzero"/><path fill="#000000" d="M534.2031 31.265625L530.625 31.265625L529.8281 33.5L528.6719 33.5L531.9219 24.96875L532.90625 24.96875L536.1719 33.5L535.0156 33.5L534.2031 31.265625ZM530.96875 30.34375L533.875 30.34375L532.4219 26.359375L530.96875 30.34375ZM538.5 33.5L537.4219 33.5L537.4219 24.5L538.5 24.5L538.5 33.5ZM542.8594 32.734375Q543.4375 32.734375 543.875 32.390625Q544.3125 32.03125 544.3594 31.5L545.3906 31.5Q545.3594 32.046875 545.0 32.546875Q544.65625 33.03125 544.0781 33.328125Q543.5156 33.625 542.8594 33.625Q541.5625 33.625 540.7969 32.765625Q540.0469 31.890625 540.0469 30.390625L540.0469 30.203125Q540.0469 29.28125 540.375 28.5625Q540.71875 27.84375 541.34375 27.453125Q541.9844 27.046875 542.8594 27.046875Q543.9219 27.046875 544.625 27.6875Q545.34375 28.3125 545.3906 29.34375L544.3594 29.34375Q544.3125 28.71875 543.8906 28.328125Q543.46875 27.9375 542.8594 27.9375Q542.03125 27.9375 541.5781 28.53125Q541.125 29.125 541.125 30.25L541.125 30.453125Q541.125 31.546875 541.5781 32.140625Q542.03125 32.734375 542.8594 32.734375ZM546.03125 30.265625Q546.03125 29.34375 546.3906 28.59375Q546.7656 27.84375 547.4219 27.453125Q548.0781 27.046875 548.90625 27.046875Q550.2031 27.046875 551.0 27.9375Q551.8125 28.828125 551.8125 30.328125L551.8125 30.40625Q551.8125 31.328125 551.4531 32.0625Q551.09375 32.796875 550.4375 33.21875Q549.78125 33.625 548.9219 33.625Q547.6406 33.625 546.8281 32.734375Q546.03125 31.828125 546.03125 30.34375L546.03125 30.265625ZM547.125 30.40625Q547.125 31.453125 547.6094 32.09375Q548.1094 32.734375 548.9219 32.734375Q549.75 32.734375 550.2344 32.09375Q550.71875 31.4375 550.71875 30.265625Q550.71875 29.234375 550.21875 28.59375Q549.7344 27.9375 548.90625 27.9375Q548.1094 27.9375 547.6094 28.578125Q547.125 29.203125 547.125 30.40625ZM554.40625 27.921875Q555.125 27.046875 556.28125 27.046875Q558.2969 27.046875 558.3125 29.3125L558.3125 33.5L557.21875 33.5L557.21875 29.296875Q557.21875 28.625 556.90625 28.296875Q556.6094 27.96875 555.9531 27.96875Q555.4219 27.96875 555.0156 28.25Q554.625 28.53125 554.40625 28.984375L554.40625 33.5L553.3281 33.5L553.3281 24.5L554.40625 24.5L554.40625 27.921875ZM560.03125 30.265625Q560.03125 29.34375 560.3906 28.59375Q560.7656 27.84375 561.4219 27.453125Q562.0781 27.046875 562.90625 27.046875Q564.2031 27.046875 565.0 27.9375Q565.8125 28.828125 565.8125 30.328125L565.8125 30.40625Q565.8125 31.328125 565.4531 32.0625Q565.09375 32.796875 564.4375 33.21875Q563.78125 33.625 562.9219 33.625Q561.6406 33.625 560.8281 32.734375Q560.03125 31.828125 560.03125 30.34375L560.03125 30.265625ZM561.125 30.40625Q561.125 31.453125 561.6094 32.09375Q562.1094 32.734375 562.9219 32.734375Q563.75 32.734375 564.2344 32.09375Q564.71875 31.4375 564.71875 30.265625Q564.71875 29.234375 564.21875 28.59375Q563.7344 27.9375 562.90625 27.9375Q562.1094 27.9375 561.6094 28.578125Q561.125 29.203125 561.125 30.40625ZM568.5 33.5L567.4219 33.5L567.4219 24.5L568.5 24.5L568.5 33.5Z" fill-rule="nonzero"/><path stroke="#cccccc" stroke-width="1.0" stroke-linecap="butt" d="M375.0 203.0L546.0 203.0" fill-rule="nonzero"/><path fill="#000000" d="M597.9844 207.5L597.9844 198.96875L600.40625 198.96875Q601.5156 198.96875 602.3594 199.46875Q603.21875 199.95312 603.6875 200.85938Q604.15625 201.76562 604.15625 202.95312L604.15625 203.48438Q604.15625 204.70312 603.6875 205.60938Q603.2344 206.51562 602.3594 207.0Q601.5 207.48438 600.3594 207.5L597.9844 207.5ZM599.1094 199.89062L599.1094 206.57812L600.2969 206.57812Q601.59375 206.57812 602.3125 205.78125Q603.0469 204.96875 603.0469 203.46875L603.0469 202.96875Q603.0469 201.51562 602.3594 200.71875Q601.6875 199.90625 600.4219 199.89062L599.1094 199.89062ZM608.8906 202.125Q608.6406 202.09375 608.3594 202.09375Q607.28125 202.09375 606.90625 203.0L606.90625 207.5L605.8281 207.5L605.8281 201.15625L606.875 201.15625L606.8906 201.89062Q607.4219 201.04688 608.40625 201.04688Q608.71875 201.04688 608.8906 201.125L608.8906 202.125ZM613.7344 206.875Q613.1094 207.625 611.875 207.625Q610.8594 207.625 610.3281 207.03125Q609.7969 206.4375 609.7969 205.28125L609.7969 201.15625L610.875 201.15625L610.875 205.25Q610.875 206.70312 612.0469 206.70312Q613.2969 206.70312 613.7031 205.76562L613.7031 201.15625L614.7969 201.15625L614.7969 207.5L613.7656 207.5L613.7344 206.875ZM616.5625 204.28125Q616.5625 202.79688 617.25 201.92188Q617.9375 201.04688 619.0625 201.04688Q620.21875 201.04688 620.875 201.85938L620.9219 201.15625L621.9219 201.15625L621.9219 207.34375Q621.9219 208.57812 621.1875 209.28125Q620.4531 210.0 619.2344 210.0Q618.5469 210.0 617.8906 209.70312Q617.2344 209.40625 616.8906 208.90625L617.4531 208.25Q618.1406 209.10938 619.15625 209.10938Q619.9375 209.10938 620.375 208.65625Q620.8281 208.21875 620.8281 207.40625L620.8281 206.85938Q620.1719 207.625 619.0469 207.625Q617.9375 207.625 617.25 206.73438Q616.5625 205.82812 616.5625 204.28125ZM617.65625 204.40625Q617.65625 205.46875 618.09375 206.09375Q618.53125 206.70312 619.3281 206.70312Q620.34375 206.70312 620.8281 205.76562L620.8281 202.875Q620.3281 201.96875 619.3281 201.96875Q618.5469 201.96875 618.09375 202.57812Q617.65625 203.1875 617.65625 204.40625ZM630.7344 206.875Q630.1094 207.625 628.875 207.625Q627.8594 207.625 627.3281 207.03125Q626.7969 206.4375 626.7969 205.28125L626.7969 201.15625L627.875 201.15625L627.875 205.25Q627.875 206.70312 629.0469 206.70312Q630.2969 206.70312 630.7031 205.76562L630.7031 201.15625L631.7969 201.15625L631.7969 207.5L630.7656 207.5L630.7344 206.875ZM637.5156 205.8125Q637.5156 205.375 637.1719 205.14062Q636.84375 204.89062 636.0156 204.71875Q635.2031 204.54688 634.71875 204.29688Q634.2344 204.04688 634.0 203.71875Q633.78125 203.375 633.78125 202.90625Q633.78125 202.125 634.4375 201.59375Q635.09375 201.04688 636.125 201.04688Q637.2031 201.04688 637.8594 201.60938Q638.53125 202.15625 638.53125 203.01562L637.4531 203.01562Q637.4531 202.57812 637.0625 202.26562Q636.6875 201.9375 636.125 201.9375Q635.53125 201.9375 635.1875 202.20312Q634.8594 202.45312 634.8594 202.85938Q634.8594 203.25 635.1719 203.45312Q635.4844 203.65625 636.2969 203.84375Q637.1094 204.01562 637.6094 204.26562Q638.1094 204.51562 638.34375 204.875Q638.59375 205.23438 638.59375 205.73438Q638.59375 206.59375 637.90625 207.10938Q637.2344 207.625 636.15625 207.625Q635.3906 207.625 634.7969 207.35938Q634.21875 207.07812 633.8906 206.59375Q633.5625 206.10938 633.5625 205.54688L634.6406 205.54688Q634.6719 206.09375 635.0781 206.42188Q635.4844 206.73438 636.15625 206.73438Q636.7656 206.73438 637.1406 206.48438Q637.5156 206.23438 637.5156 205.8125ZM642.4531 207.625Q641.15625 207.625 640.34375 206.78125Q639.5469 205.92188 639.5469 204.5L639.5469 204.3125Q639.5469 203.35938 639.90625 202.625Q640.2656 201.875 640.90625 201.46875Q641.5625 201.04688 642.3125 201.04688Q643.5469 201.04688 644.2344 201.85938Q644.9219 202.67188 644.9219 204.1875L644.9219 204.64062L640.625 204.64062Q640.65625 205.57812 641.1719 206.15625Q641.7031 206.73438 642.5156 206.73438Q643.0781 206.73438 643.46875 206.5Q643.875 206.26562 644.1875 205.875L644.84375 206.39062Q644.0469 207.625 642.4531 207.625ZM642.3125 201.9375Q641.65625 201.9375 641.2031 202.42188Q640.7656 202.89062 640.6719 203.75L643.84375 203.75L643.84375 203.67188Q643.7969 202.84375 643.3906 202.39062Q643.0 201.9375 642.3125 201.9375Z" fill-rule="nonzero"/><path stroke="#cccccc" stroke-width="1.0" stroke-linecap="butt" d="M375.0 203.0L496.0 324.0" fill-rule="nonzero"/><path fill="#000000" d="M498.04688 381.5L496.92188 381.5L496.92188 377.5625L492.60938 377.5625L492.60938 381.5L491.48438 381.5L491.48438 372.96875L492.60938 372.96875L492.60938 376.64062L496.92188 376.64062L496.92188 372.96875L498.04688 372.96875L498.04688 381.5ZM502.95312 381.625Q501.65625 381.625 500.84375 380.78125Q500.04688 379.92188 500.04688 378.5L500.04688 378.3125Q500.04688 377.35938 500.40625 376.625Q500.76562 375.875 501.40625 375.46875Q502.0625 375.04688 502.8125 375.04688Q504.04688 375.04688 504.73438 375.85938Q505.42188 376.67188 505.42188 378.1875L505.42188 378.64062L501.125 378.64062Q501.15625 379.57812 501.67188 380.15625Q502.20312 380.73438 503.01562 380.73438Q503.57812 380.73438 503.96875 380.5Q504.375 380.26562 504.6875 379.875L505.34375 380.39062Q504.54688 381.625 502.95312 381.625ZM502.8125 375.9375Q502.15625 375.9375 501.70312 376.42188Q501.26562 376.89062 501.17188 377.75L504.34375 377.75L504.34375 377.67188Q504.29688 376.84375 503.89062 376.39062Q503.5 375.9375 502.8125 375.9375ZM510.23438 381.5Q510.14062 381.3125 510.07812 380.82812Q509.32812 381.625 508.28125 381.625Q507.34375 381.625 506.73438 381.09375Q506.14062 380.5625 506.14062 379.73438Q506.14062 378.75 506.89062 378.20312Q507.64062 377.65625 509.01562 377.65625L510.0625 377.65625L510.0625 377.15625Q510.0625 376.59375 509.71875 376.26562Q509.39062 375.92188 508.71875 375.92188Q508.14062 375.92188 507.75 376.21875Q507.35938 376.5 507.35938 376.92188L506.26562 376.92188Q506.26562 376.4375 506.59375 376.0Q506.9375 375.5625 507.51562 375.3125Q508.09375 375.04688 508.78125 375.04688Q509.89062 375.04688 510.5 375.59375Q511.125 376.14062 511.15625 377.09375L511.15625 380.01562Q511.15625 380.89062 511.375 381.40625L511.375 381.5L510.23438 381.5ZM508.4375 380.67188Q508.95312 380.67188 509.40625 380.40625Q509.85938 380.14062 510.0625 379.71875L510.0625 378.42188L509.21875 378.42188Q507.21875 378.42188 507.21875 379.59375Q507.21875 380.09375 507.5625 380.39062Q507.90625 380.67188 508.4375 380.67188ZM514.5 381.5L513.4219 381.5L513.4219 372.5L514.5 372.5L514.5 381.5ZM517.7969 373.625L517.7969 375.15625L518.96875 375.15625L518.96875 376.0L517.7969 376.0L517.7969 379.92188Q517.7969 380.3125 517.9531 380.5Q518.1094 380.6875 518.4844 380.6875Q518.6719 380.6875 519.0 380.625L519.0 381.5Q518.5781 381.625 518.1719 381.625Q517.4531 381.625 517.0781 381.1875Q516.7031 380.73438 516.7031 379.92188L516.7031 376.0L515.5469 376.0L515.5469 375.15625L516.7031 375.15625L516.7031 373.625L517.7969 373.625ZM521.40625 375.92188Q522.125 375.04688 523.28125 375.04688Q525.2969 375.04688 525.3125 377.3125L525.3125 381.5L524.21875 381.5L524.21875 377.29688Q524.21875 376.625 523.90625 376.29688Q523.6094 375.96875 522.9531 375.96875Q522.4219 375.96875 522.0156 376.25Q521.625 376.53125 521.40625 376.98438L521.40625 381.5L520.3281 381.5L520.3281 372.5L521.40625 372.5L521.40625 375.92188ZM534.2344 381.5Q534.1406 381.3125 534.0781 380.82812Q533.3281 381.625 532.28125 381.625Q531.34375 381.625 530.7344 381.09375Q530.1406 380.5625 530.1406 379.73438Q530.1406 378.75 530.8906 378.20312Q531.6406 377.65625 533.0156 377.65625L534.0625 377.65625L534.0625 377.15625Q534.0625 376.59375 533.71875 376.26562Q533.3906 375.92188 532.71875 375.92188Q532.1406 375.92188 531.75 376.21875Q531.3594 376.5 531.3594 376.92188L530.2656 376.92188Q530.2656 376.4375 530.59375 376.0Q530.9375 375.5625 531.5156 375.3125Q532.09375 375.04688 532.78125 375.04688Q533.8906 375.04688 534.5 375.59375Q535.125 376.14062 535.15625 377.09375L535.15625 380.01562Q535.15625 380.89062 535.375 381.40625L535.375 381.5L534.2344 381.5ZM532.4375 380.67188Q532.9531 380.67188 533.40625 380.40625Q533.8594 380.14062 534.0625 379.71875L534.0625 378.42188L533.21875 378.42188Q531.21875 378.42188 531.21875 379.59375Q531.21875 380.09375 531.5625 380.39062Q531.90625 380.67188 532.4375 380.67188ZM538.34375 375.15625L538.375 375.95312Q539.1094 375.04688 540.28125 375.04688Q542.2969 375.04688 542.3125 377.3125L542.3125 381.5L541.21875 381.5L541.21875 377.29688Q541.21875 376.625 540.90625 376.29688Q540.6094 375.96875 539.9531 375.96875Q539.4219 375.96875 539.0156 376.25Q538.625 376.53125 538.40625 376.98438L538.40625 381.5L537.3281 381.5L537.3281 375.15625L538.34375 375.15625ZM544.0625 378.28125Q544.0625 376.8125 544.75 375.9375Q545.4375 375.04688 546.5625 375.04688Q547.6719 375.04688 548.3281 375.79688L548.3281 372.5L549.40625 372.5L549.40625 381.5L548.40625 381.5L548.3594 380.8125Q547.7031 381.625 546.5469 381.625Q545.4531 381.625 544.75 380.71875Q544.0625 379.8125 544.0625 378.35938L544.0625 378.28125ZM545.1406 378.40625Q545.1406 379.48438 545.5781 380.09375Q546.03125 380.70312 546.8125 380.70312Q547.84375 380.70312 548.3281 379.76562L548.3281 376.85938Q547.84375 375.96875 546.8281 375.96875Q546.03125 375.96875 545.5781 376.57812Q545.1406 377.1875 545.1406 378.40625ZM559.9375 380.0L561.15625 375.15625L562.2344 375.15625L560.3906 381.5L559.5156 381.5L557.96875 376.6875L556.46875 381.5L555.59375 381.5L553.75 375.15625L554.8281 375.15625L556.0781 379.90625L557.5625 375.15625L558.4219 375.15625L559.9375 380.0ZM565.9531 381.625Q564.65625 381.625 563.84375 380.78125Q563.0469 379.92188 563.0469 378.5L563.0469 378.3125Q563.0469 377.35938 563.40625 376.625Q563.7656 375.875 564.40625 375.46875Q565.0625 375.04688 565.8125 375.04688Q567.0469 375.04688 567.7344 375.85938Q568.4219 376.67188 568.4219 378.1875L568.4219 378.64062L564.125 378.64062Q564.15625 379.57812 564.6719 380.15625Q565.2031 380.73438 566.0156 380.73438Q566.5781 380.73438 566.96875 380.5Q567.375 380.26562 567.6875 379.875L568.34375 380.39062Q567.5469 381.625 565.9531 381.625ZM565.8125 375.9375Q565.15625 375.9375 564.7031 376.42188Q564.2656 376.89062 564.1719 377.75L567.34375 377.75L567.34375 377.67188Q567.2969 376.84375 566.8906 376.39062Q566.5 375.9375 565.8125 375.9375ZM570.5 381.5L569.4219 381.5L569.4219 372.5L570.5 372.5L570.5 381.5ZM573.5 381.5L572.4219 381.5L572.4219 372.5L573.5 372.5L573.5 381.5ZM577.5781 378.3125L574.71875 378.3125L574.71875 377.4375L577.5781 377.4375L577.5781 378.3125ZM583.6875 378.40625Q583.6875 379.85938 583.0156 380.75Q582.3594 381.625 581.2344 381.625Q580.03125 381.625 579.375 380.76562L579.3125 381.5L578.3281 381.5L578.3281 372.5L579.40625 372.5L579.40625 375.85938Q580.0625 375.04688 581.21875 375.04688Q582.375 375.04688 583.03125 375.92188Q583.6875 376.78125 583.6875 378.3125L583.6875 378.40625ZM582.6094 378.28125Q582.6094 377.17188 582.1719 376.57812Q581.75 375.96875 580.9531 375.96875Q579.875 375.96875 579.40625 376.95312L579.40625 379.70312Q579.90625 380.70312 580.9531 380.70312Q581.7344 380.70312 582.1719 380.09375Q582.6094 379.48438 582.6094 378.28125ZM587.9531 381.625Q586.65625 381.625 585.84375 380.78125Q585.0469 379.92188 585.0469 378.5L585.0469 378.3125Q585.0469 377.35938 585.40625 376.625Q585.7656 375.875 586.40625 375.46875Q587.0625 375.04688 587.8125 375.04688Q589.0469 375.04688 589.7344 375.85938Q590.4219 376.67188 590.4219 378.1875L590.4219 378.64062L586.125 378.64062Q586.15625 379.57812 586.6719 380.15625Q587.2031 380.73438 588.0156 380.73438Q588.5781 380.73438 588.96875 380.5Q589.375 380.26562 589.6875 379.875L590.34375 380.39062Q589.5469 381.625 587.9531 381.625ZM587.8125 375.9375Q587.15625 375.9375 586.7031 376.42188Q586.2656 376.89062 586.1719 377.75L589.34375 377.75L589.34375 377.67188Q589.2969 376.84375 588.8906 376.39062Q588.5 375.9375 587.8125 375.9375ZM592.5 381.5L591.4219 381.5L591.4219 375.15625L592.5 375.15625L592.5 381.5ZM591.3281 373.48438Q591.3281 373.21875 591.4844 373.03125Q591.65625 372.84375 591.96875 372.84375Q592.28125 372.84375 592.4375 373.03125Q592.6094 373.21875 592.6094 373.48438Q592.6094 373.73438 592.4375 373.92188Q592.28125 374.09375 591.96875 374.09375Q591.65625 374.09375 591.4844 373.92188Q591.3281 373.73438 591.3281 373.48438ZM595.34375 375.15625L595.375 375.95312Q596.1094 375.04688 597.28125 375.04688Q599.2969 375.04688 599.3125 377.3125L599.3125 381.5L598.21875 381.5L598.21875 377.29688Q598.21875 376.625 597.90625 376.29688Q597.6094 375.96875 596.9531 375.96875Q596.4219 375.96875 596.0156 376.25Q595.625 376.53125 595.40625 376.98438L595.40625 381.5L594.3281 381.5L594.3281 375.15625L595.34375 375.15625ZM601.0625 378.28125Q601.0625 376.79688 601.75 375.92188Q602.4375 375.04688 603.5625 375.04688Q604.71875 375.04688 605.375 375.85938L605.4219 375.15625L606.4219 375.15625L606.4219 381.34375Q606.4219 382.57812 605.6875 383.28125Q604.9531 384.0 603.7344 384.0Q603.0469 384.0 602.3906 383.70312Q601.7344 383.40625 601.3906 382.90625L601.9531 382.25Q602.6406 383.10938 603.65625 383.10938Q604.4375 383.10938 604.875 382.65625Q605.3281 382.21875 605.3281 381.40625L605.3281 380.85938Q604.6719 381.625 603.5469 381.625Q602.4375 381.625 601.75 380.73438Q601.0625 379.82812 601.0625 378.28125ZM602.15625 378.40625Q602.15625 379.46875 602.59375 380.09375Q603.03125 380.70312 603.8281 380.70312Q604.84375 380.70312 605.3281 379.76562L605.3281 376.875Q604.8281 375.96875 603.8281 375.96875Q603.0469 375.96875 602.59375 376.57812Q602.15625 377.1875 602.15625 378.40625Z" fill-rule="nonzero"/><path stroke="#cccccc" stroke-width="1.0" stroke-linecap="butt" d="M375.0 203.0L375.0 374.0" fill-rule="nonzero"/><path stroke="#cccccc" stroke-width="1.0" stroke-linecap="butt" d="M375.0 203.0L254.0 324.0" fill-rule="nonzero"/><path fill="#000000" d="M98.109375 378.15625L98.109375 381.5L96.984375 381.5L96.984375 372.96875L100.140625 372.96875Q101.53125 372.96875 102.328125 373.6875Q103.125 374.39062 103.125 375.57812Q103.125 376.8125 102.34375 377.48438Q101.578125 378.15625 100.125 378.15625L98.109375 378.15625ZM98.109375 377.23438L100.140625 377.23438Q101.046875 377.23438 101.515625 376.8125Q102.0 376.39062 102.0 375.59375Q102.0 374.82812 101.515625 374.375Q101.046875 373.90625 100.203125 373.89062L98.109375 373.89062L98.109375 377.23438ZM107.453125 381.625Q106.15625 381.625 105.34375 380.78125Q104.546875 379.92188 104.546875 378.5L104.546875 378.3125Q104.546875 377.35938 104.90625 376.625Q105.265625 375.875 105.90625 375.46875Q106.5625 375.04688 107.3125 375.04688Q108.546875 375.04688 109.234375 375.85938Q109.921875 376.67188 109.921875 378.1875L109.921875 378.64062L105.625 378.64062Q105.65625 379.57812 106.171875 380.15625Q106.703125 380.73438 107.515625 380.73438Q108.078125 380.73438 108.46875 380.5Q108.875 380.26562 109.1875 379.875L109.84375 380.39062Q109.046875 381.625 107.453125 381.625ZM107.3125 375.9375Q106.65625 375.9375 106.203125 376.42188Q105.765625 376.89062 105.671875 377.75L108.84375 377.75L108.84375 377.67188Q108.796875 376.84375 108.390625 376.39062Q108.0 375.9375 107.3125 375.9375ZM113.890625 376.125Q113.640625 376.09375 113.359375 376.09375Q112.28125 376.09375 111.90625 377.0L111.90625 381.5L110.828125 381.5L110.828125 375.15625L111.875 375.15625L111.890625 375.89062Q112.421875 375.04688 113.40625 375.04688Q113.71875 375.04688 113.890625 375.125L113.890625 376.125ZM118.515625 379.8125Q118.515625 379.375 118.171875 379.14062Q117.84375 378.89062 117.015625 378.71875Q116.203125 378.54688 115.71875 378.29688Q115.234375 378.04688 115.0 377.71875Q114.78125 377.375 114.78125 376.90625Q114.78125 376.125 115.4375 375.59375Q116.09375 375.04688 117.125 375.04688Q118.203125 375.04688 118.859375 375.60938Q119.53125 376.15625 119.53125 377.01562L118.453125 377.01562Q118.453125 376.57812 118.0625 376.26562Q117.6875 375.9375 117.125 375.9375Q116.53125 375.9375 116.1875 376.20312Q115.859375 376.45312 115.859375 376.85938Q115.859375 377.25 116.171875 377.45312Q116.484375 377.65625 117.296875 377.84375Q118.109375 378.01562 118.609375 378.26562Q119.109375 378.51562 119.34375 378.875Q119.59375 379.23438 119.59375 379.73438Q119.59375 380.59375 118.90625 381.10938Q118.234375 381.625 117.15625 381.625Q116.390625 381.625 115.796875 381.35938Q115.21875 381.07812 114.890625 380.59375Q114.5625 380.10938 114.5625 379.54688L115.640625 379.54688Q115.671875 380.09375 116.078125 380.42188Q116.484375 380.73438 117.15625 380.73438Q117.765625 380.73438 118.140625 380.48438Q118.515625 380.23438 118.515625 379.8125ZM120.53125 378.26562Q120.53125 377.34375 120.890625 376.59375Q121.265625 375.84375 121.921875 375.45312Q122.578125 375.04688 123.40625 375.04688Q124.703125 375.04688 125.5 375.9375Q126.3125 376.82812 126.3125 378.32812L126.3125 378.40625Q126.3125 379.32812 125.953125 380.0625Q125.59375 380.79688 124.9375 381.21875Q124.28125 381.625 123.421875 381.625Q122.140625 381.625 121.328125 380.73438Q120.53125 379.82812 120.53125 378.34375L120.53125 378.26562ZM121.625 378.40625Q121.625 379.45312 122.109375 380.09375Q122.609375 380.73438 123.421875 380.73438Q124.25 380.73438 124.734375 380.09375Q125.21875 379.4375 125.21875 378.26562Q125.21875 377.23438 124.71875 376.59375Q124.234375 375.9375 123.40625 375.9375Q122.609375 375.9375 122.109375 376.57812Q121.625 377.20312 121.625 378.40625ZM128.84375 375.15625L128.875 375.95312Q129.60938 375.04688 130.78125 375.04688Q132.79688 375.04688 132.8125 377.3125L132.8125 381.5L131.71875 381.5L131.71875 377.29688Q131.71875 376.625 131.40625 376.29688Q131.10938 375.96875 130.45312 375.96875Q129.92188 375.96875 129.51562 376.25Q129.125 376.53125 128.90625 376.98438L128.90625 381.5L127.828125 381.5L127.828125 375.15625L128.84375 375.15625ZM138.73438 381.5Q138.64062 381.3125 138.57812 380.82812Q137.82812 381.625 136.78125 381.625Q135.84375 381.625 135.23438 381.09375Q134.64062 380.5625 134.64062 379.73438Q134.64062 378.75 135.39062 378.20312Q136.14062 377.65625 137.51562 377.65625L138.5625 377.65625L138.5625 377.15625Q138.5625 376.59375 138.21875 376.26562Q137.89062 375.92188 137.21875 375.92188Q136.64062 375.92188 136.25 376.21875Q135.85938 376.5 135.85938 376.92188L134.76562 376.92188Q134.76562 376.4375 135.09375 376.0Q135.4375 375.5625 136.01562 375.3125Q136.59375 375.04688 137.28125 375.04688Q138.39062 375.04688 139.0 375.59375Q139.625 376.14062 139.65625 377.09375L139.65625 380.01562Q139.65625 380.89062 139.875 381.40625L139.875 381.5L138.73438 381.5ZM136.9375 380.67188Q137.45312 380.67188 137.90625 380.40625Q138.35938 380.14062 138.5625 379.71875L138.5625 378.42188L137.71875 378.42188Q135.71875 378.42188 135.71875 379.59375Q135.71875 380.09375 136.0625 380.39062Q136.40625 380.67188 136.9375 380.67188ZM143.0 381.5L141.92188 381.5L141.92188 372.5L143.0 372.5L143.0 381.5ZM150.89062 376.125Q150.64062 376.09375 150.35938 376.09375Q149.28125 376.09375 148.90625 377.0L148.90625 381.5L147.82812 381.5L147.82812 375.15625L148.875 375.15625L148.89062 375.89062Q149.42188 375.04688 150.40625 375.04688Q150.71875 375.04688 150.89062 375.125L150.89062 376.125ZM154.45312 381.625Q153.15625 381.625 152.34375 380.78125Q151.54688 379.92188 151.54688 378.5L151.54688 378.3125Q151.54688 377.35938 151.90625 376.625Q152.26562 375.875 152.90625 375.46875Q153.5625 375.04688 154.3125 375.04688Q155.54688 375.04688 156.23438 375.85938Q156.92188 376.67188 156.92188 378.1875L156.92188 378.64062L152.625 378.64062Q152.65625 379.57812 153.17188 380.15625Q153.70312 380.73438 154.51562 380.73438Q155.07812 380.73438 155.46875 380.5Q155.875 380.26562 156.1875 379.875L156.84375 380.39062Q156.04688 381.625 154.45312 381.625ZM154.3125 375.9375Q153.65625 375.9375 153.20312 376.42188Q152.76562 376.89062 152.67188 377.75L155.84375 377.75L155.84375 377.67188Q155.79688 376.84375 155.39062 376.39062Q155.0 375.9375 154.3125 375.9375ZM159.0 381.5L157.92188 381.5L157.92188 372.5L159.0 372.5L159.0 381.5ZM164.73438 381.5Q164.64062 381.3125 164.57812 380.82812Q163.82812 381.625 162.78125 381.625Q161.84375 381.625 161.23438 381.09375Q160.64062 380.5625 160.64062 379.73438Q160.64062 378.75 161.39062 378.20312Q162.14062 377.65625 163.51562 377.65625L164.5625 377.65625L164.5625 377.15625Q164.5625 376.59375 164.21875 376.26562Q163.89062 375.92188 163.21875 375.92188Q162.64062 375.92188 162.25 376.21875Q161.85938 376.5 161.85938 376.92188L160.76562 376.92188Q160.76562 376.4375 161.09375 376.0Q161.4375 375.5625 162.01562 375.3125Q162.59375 375.04688 163.28125 375.04688Q164.39062 375.04688 165.0 375.59375Q165.625 376.14062 165.65625 377.09375L165.65625 380.01562Q165.65625 380.89062 165.875 381.40625L165.875 381.5L164.73438 381.5ZM162.9375 380.67188Q163.45312 380.67188 163.90625 380.40625Q164.35938 380.14062 164.5625 379.71875L164.5625 378.42188L163.71875 378.42188Q161.71875 378.42188 161.71875 379.59375Q161.71875 380.09375 162.0625 380.39062Q162.40625 380.67188 162.9375 380.67188ZM169.29688 373.625L169.29688 375.15625L170.46875 375.15625L170.46875 376.0L169.29688 376.0L169.29688 379.92188Q169.29688 380.3125 169.45312 380.5Q169.60938 380.6875 169.98438 380.6875Q170.17188 380.6875 170.5 380.625L170.5 381.5Q170.07812 381.625 169.67188 381.625Q168.95312 381.625 168.57812 381.1875Q168.20312 380.73438 168.20312 379.92188L168.20312 376.0L167.04688 376.0L167.04688 375.15625L168.20312 375.15625L168.20312 373.625L169.29688 373.625ZM173.0 381.5L171.92188 381.5L171.92188 375.15625L173.0 375.15625L173.0 381.5ZM171.82812 373.48438Q171.82812 373.21875 171.98438 373.03125Q172.15625 372.84375 172.46875 372.84375Q172.78125 372.84375 172.9375 373.03125Q173.10938 373.21875 173.10938 373.48438Q173.10938 373.73438 172.9375 373.92188Q172.78125 374.09375 172.46875 374.09375Q172.15625 374.09375 171.98438 373.92188Q171.82812 373.73438 171.82812 373.48438ZM174.53125 378.26562Q174.53125 377.34375 174.89062 376.59375Q175.26562 375.84375 175.92188 375.45312Q176.57812 375.04688 177.40625 375.04688Q178.70312 375.04688 179.5 375.9375Q180.3125 376.82812 180.3125 378.32812L180.3125 378.40625Q180.3125 379.32812 179.95312 380.0625Q179.59375 380.79688 178.9375 381.21875Q178.28125 381.625 177.42188 381.625Q176.14062 381.625 175.32812 380.73438Q174.53125 379.82812 174.53125 378.34375L174.53125 378.26562ZM175.625 378.40625Q175.625 379.45312 176.10938 380.09375Q176.60938 380.73438 177.42188 380.73438Q178.25 380.73438 178.73438 380.09375Q179.21875 379.4375 179.21875 378.26562Q179.21875 377.23438 178.71875 376.59375Q178.23438 375.9375 177.40625 375.9375Q176.60938 375.9375 176.10938 376.57812Q175.625 377.20312 175.625 378.40625ZM182.84375 375.15625L182.875 375.95312Q183.60938 375.04688 184.78125 375.04688Q186.79688 375.04688 186.8125 377.3125L186.8125 381.5L185.71875 381.5L185.71875 377.29688Q185.71875 376.625 185.40625 376.29688Q185.10938 375.96875 184.45312 375.96875Q183.92188 375.96875 183.51562 376.25Q183.125 376.53125 182.90625 376.98438L182.90625 381.5L181.82812 381.5L181.82812 375.15625L182.84375 375.15625ZM192.51562 379.8125Q192.51562 379.375 192.17188 379.14062Q191.84375 378.89062 191.01562 378.71875Q190.20312 378.54688 189.71875 378.29688Q189.23438 378.04688 189.0 377.71875Q188.78125 377.375 188.78125 376.90625Q188.78125 376.125 189.4375 375.59375Q190.09375 375.04688 191.125 375.04688Q192.20312 375.04688 192.85938 375.60938Q193.53125 376.15625 193.53125 377.01562L192.45312 377.01562Q192.45312 376.57812 192.0625 376.26562Q191.6875 375.9375 191.125 375.9375Q190.53125 375.9375 190.1875 376.20312Q189.85938 376.45312 189.85938 376.85938Q189.85938 377.25 190.17188 377.45312Q190.48438 377.65625 191.29688 377.84375Q192.10938 378.01562 192.60938 378.26562Q193.10938 378.51562 193.34375 378.875Q193.59375 379.23438 193.59375 379.73438Q193.59375 380.59375 192.90625 381.10938Q192.23438 381.625 191.15625 381.625Q190.39062 381.625 189.79688 381.35938Q189.21875 381.07812 188.89062 380.59375Q188.5625 380.10938 188.5625 379.54688L189.64062 379.54688Q189.67188 380.09375 190.07812 380.42188Q190.48438 380.73438 191.15625 380.73438Q191.76562 380.73438 192.14062 380.48438Q192.51562 380.23438 192.51562 379.8125ZM195.90625 375.92188Q196.625 375.04688 197.78125 375.04688Q199.79688 375.04688 199.8125 377.3125L199.8125 381.5L198.71875 381.5L198.71875 377.29688Q198.71875 376.625 198.40625 376.29688Q198.10938 375.96875 197.45312 375.96875Q196.92188 375.96875 196.51562 376.25Q196.125 376.53125 195.90625 376.98438L195.90625 381.5L194.82812 381.5L194.82812 372.5L195.90625 372.5L195.90625 375.92188ZM203.0 381.5L201.92188 381.5L201.92188 375.15625L203.0 375.15625L203.0 381.5ZM201.82812 373.48438Q201.82812 373.21875 201.98438 373.03125Q202.15625 372.84375 202.46875 372.84375Q202.78125 372.84375 202.9375 373.03125Q203.10938 373.21875 203.10938 373.48438Q203.10938 373.73438 202.9375 373.92188Q202.78125 374.09375 202.46875 374.09375Q202.15625 374.09375 201.98438 373.92188Q201.82812 373.73438 201.82812 373.48438ZM210.17188 378.40625Q210.17188 379.84375 209.51562 380.73438Q208.85938 381.625 207.71875 381.625Q206.5625 381.625 205.90625 380.89062L205.90625 383.9375L204.82812 383.9375L204.82812 375.15625L205.8125 375.15625L205.85938 375.85938Q206.53125 375.04688 207.70312 375.04688Q208.84375 375.04688 209.5 375.90625Q210.17188 376.76562 210.17188 378.29688L210.17188 378.40625ZM209.09375 378.28125Q209.09375 377.20312 208.625 376.59375Q208.17188 375.96875 207.375 375.96875Q206.39062 375.96875 205.90625 376.82812L205.90625 379.85938Q206.39062 380.73438 207.39062 380.73438Q208.17188 380.73438 208.625 380.125Q209.09375 379.5 209.09375 378.28125ZM215.51562 379.8125Q215.51562 379.375 215.17188 379.14062Q214.84375 378.89062 214.01562 378.71875Q213.20312 378.54688 212.71875 378.29688Q212.23438 378.04688 212.0 377.71875Q211.78125 377.375 211.78125 376.90625Q211.78125 376.125 212.4375 375.59375Q213.09375 375.04688 214.125 375.04688Q215.20312 375.04688 215.85938 375.60938Q216.53125 376.15625 216.53125 377.01562L215.45312 377.01562Q215.45312 376.57812 215.0625 376.26562Q214.6875 375.9375 214.125 375.9375Q213.53125 375.9375 213.1875 376.20312Q212.85938 376.45312 212.85938 376.85938Q212.85938 377.25 213.17188 377.45312Q213.48438 377.65625 214.29688 377.84375Q215.10938 378.01562 215.60938 378.26562Q216.10938 378.51562 216.34375 378.875Q216.59375 379.23438 216.59375 379.73438Q216.59375 380.59375 215.90625 381.10938Q215.23438 381.625 214.15625 381.625Q213.39062 381.625 212.79688 381.35938Q212.21875 381.07812 211.89062 380.59375Q211.5625 380.10938 211.5625 379.54688L212.64062 379.54688Q212.67188 380.09375 213.07812 380.42188Q213.48438 380.73438 214.15625 380.73438Q214.76562 380.73438 215.14062 380.48438Q215.51562 380.23438 215.51562 379.8125ZM224.73438 381.5Q224.64062 381.3125 224.57812 380.82812Q223.82812 381.625 222.78125 381.625Q221.84375 381.625 221.23438 381.09375Q220.64062 380.5625 220.64062 379.73438Q220.64062 378.75 221.39062 378.20312Q222.14062 377.65625 223.51562 377.65625L224.5625 377.65625L224.5625 377.15625Q224.5625 376.59375 224.21875 376.26562Q223.89062 375.92188 223.21875 375.92188Q222.64062 375.92188 222.25 376.21875Q221.85938 376.5 221.85938 376.92188L220.76562 376.92188Q220.76562 376.4375 221.09375 376.0Q221.4375 375.5625 222.01562 375.3125Q222.59375 375.04688 223.28125 375.04688Q224.39062 375.04688 225.0 375.59375Q225.625 376.14062 225.65625 377.09375L225.65625 380.01562Q225.65625 380.89062 225.875 381.40625L225.875 381.5L224.73438 381.5ZM222.9375 380.67188Q223.45312 380.67188 223.90625 380.40625Q224.35938 380.14062 224.5625 379.71875L224.5625 378.42188L223.71875 378.42188Q221.71875 378.42188 221.71875 379.59375Q221.71875 380.09375 222.0625 380.39062Q222.40625 380.67188 222.9375 380.67188ZM228.84375 375.15625L228.875 375.95312Q229.60938 375.04688 230.78125 375.04688Q232.79688 375.04688 232.8125 377.3125L232.8125 381.5L231.71875 381.5L231.71875 377.29688Q231.71875 376.625 231.40625 376.29688Q231.10938 375.96875 230.45312 375.96875Q229.92188 375.96875 229.51562 376.25Q229.125 376.53125 228.90625 376.98438L228.90625 381.5L227.82812 381.5L227.82812 375.15625L228.84375 375.15625ZM234.5625 378.28125Q234.5625 376.8125 235.25 375.9375Q235.9375 375.04688 237.0625 375.04688Q238.17188 375.04688 238.82812 375.79688L238.82812 372.5L239.90625 372.5L239.90625 381.5L238.90625 381.5L238.85938 380.8125Q238.20312 381.625 237.04688 381.625Q235.95312 381.625 235.25 380.71875Q234.5625 379.8125 234.5625 378.35938L234.5625 378.28125ZM235.64062 378.40625Q235.64062 379.48438 236.07812 380.09375Q236.53125 380.70312 237.3125 380.70312Q238.34375 380.70312 238.82812 379.76562L238.82812 376.85938Q238.34375 375.96875 237.32812 375.96875Q236.53125 375.96875 236.07812 376.57812Q235.64062 377.1875 235.64062 378.40625ZM247.35938 380.73438Q247.9375 380.73438 248.375 380.39062Q248.8125 380.03125 248.85938 379.5L249.89062 379.5Q249.85938 380.04688 249.5 380.54688Q249.15625 381.03125 248.57812 381.32812Q248.01562 381.625 247.35938 381.625Q246.0625 381.625 245.29688 380.76562Q244.54688 379.89062 244.54688 378.39062L244.54688 378.20312Q244.54688 377.28125 244.875 376.5625Q245.21875 375.84375 245.84375 375.45312Q246.48438 375.04688 247.35938 375.04688Q248.42188 375.04688 249.125 375.6875Q249.84375 376.3125 249.89062 377.34375L248.85938 377.34375Q248.8125 376.71875 248.39062 376.32812Q247.96875 375.9375 247.35938 375.9375Q246.53125 375.9375 246.07812 376.53125Q245.625 377.125 245.625 378.25L245.625 378.45312Q245.625 379.54688 246.07812 380.14062Q246.53125 380.73438 247.35938 380.73438ZM250.53125 378.26562Q250.53125 377.34375 250.89062 376.59375Q251.26562 375.84375 251.92188 375.45312Q252.57812 375.04688 253.40625 375.04688Q254.70312 375.04688 255.5 375.9375Q256.3125 376.82812 256.3125 378.32812L256.3125 378.40625Q256.3125 379.32812 255.95312 380.0625Q255.59375 380.79688 254.9375 381.21875Q254.28125 381.625 253.42188 381.625Q252.14062 381.625 251.32812 380.73438Q250.53125 379.82812 250.53125 378.34375L250.53125 378.26562ZM251.625 378.40625Q251.625 379.45312 252.10938 380.09375Q252.60938 380.73438 253.42188 380.73438Q254.25 380.73438 254.73438 380.09375Q255.21875 379.4375 255.21875 378.26562Q255.21875 377.23438 254.71875 376.59375Q254.23438 375.9375 253.40625 375.9375Q252.60938 375.9375 252.10938 376.57812Q251.625 377.20312 251.625 378.40625ZM258.84375 375.15625L258.875 375.85938Q259.5625 375.04688 260.75 375.04688Q262.07812 375.04688 262.5625 376.0625Q262.875 375.60938 263.375 375.32812Q263.89062 375.04688 264.57812 375.04688Q266.67188 375.04688 266.70312 377.25L266.70312 381.5L265.625 381.5L265.625 377.3125Q265.625 376.64062 265.3125 376.3125Q265.0 375.96875 264.26562 375.96875Q263.65625 375.96875 263.25 376.32812Q262.85938 376.6875 262.79688 377.29688L262.79688 381.5L261.71875 381.5L261.71875 377.34375Q261.71875 375.96875 260.35938 375.96875Q259.29688 375.96875 258.90625 376.875L258.90625 381.5L257.8125 381.5L257.8125 375.15625L258.84375 375.15625ZM269.84375 375.15625L269.875 375.85938Q270.5625 375.04688 271.75 375.04688Q273.07812 375.04688 273.5625 376.0625Q273.875 375.60938 274.375 375.32812Q274.89062 375.04688 275.57812 375.04688Q277.67188 375.04688 277.70312 377.25L277.70312 381.5L276.625 381.5L276.625 377.3125Q276.625 376.64062 276.3125 376.3125Q276.0 375.96875 275.26562 375.96875Q274.65625 375.96875 274.25 376.32812Q273.85938 376.6875 273.79688 377.29688L273.79688 381.5L272.71875 381.5L272.71875 377.34375Q272.71875 375.96875 271.35938 375.96875Q270.29688 375.96875 269.90625 376.875L269.90625 381.5L268.8125 381.5L268.8125 375.15625L269.84375 375.15625ZM283.73438 380.875Q283.10938 381.625 281.875 381.625Q280.85938 381.625 280.32812 381.03125Q279.79688 380.4375 279.79688 379.28125L279.79688 375.15625L280.875 375.15625L280.875 379.25Q280.875 380.70312 282.04688 380.70312Q283.29688 380.70312 283.70312 379.76562L283.70312 375.15625L284.79688 375.15625L284.79688 381.5L283.76562 381.5L283.73438 380.875ZM287.84375 375.15625L287.875 375.95312Q288.60938 375.04688 289.78125 375.04688Q291.79688 375.04688 291.8125 377.3125L291.8125 381.5L290.71875 381.5L290.71875 377.29688Q290.71875 376.625 290.40625 376.29688Q290.10938 375.96875 289.45312 375.96875Q288.92188 375.96875 288.51562 376.25Q288.125 376.53125 287.90625 376.98438L287.90625 381.5L286.82812 381.5L286.82812 375.15625L287.84375 375.15625ZM295.0 381.5L293.92188 381.5L293.92188 375.15625L295.0 375.15625L295.0 381.5ZM293.82812 373.48438Q293.82812 373.21875 293.98438 373.03125Q294.15625 372.84375 294.46875 372.84375Q294.78125 372.84375 294.9375 373.03125Q295.10938 373.21875 295.10938 373.48438Q295.10938 373.73438 294.9375 373.92188Q294.78125 374.09375 294.46875 374.09375Q294.15625 374.09375 293.98438 373.92188Q293.82812 373.73438 293.82812 373.48438ZM298.29688 373.625L298.29688 375.15625L299.46875 375.15625L299.46875 376.0L298.29688 376.0L298.29688 379.92188Q298.29688 380.3125 298.45312 380.5Q298.60938 380.6875 298.98438 380.6875Q299.17188 380.6875 299.5 380.625L299.5 381.5Q299.07812 381.625 298.67188 381.625Q297.95312 381.625 297.57812 381.1875Q297.20312 380.73438 297.20312 379.92188L297.20312 376.0L296.04688 376.0L296.04688 375.15625L297.20312 375.15625L297.20312 373.625L298.29688 373.625ZM302.89062 379.90625L304.375 375.15625L305.53125 375.15625L302.98438 382.48438Q302.39062 384.0625 301.10938 384.0625L300.89062 384.04688L300.5 383.96875L300.5 383.09375L300.78125 383.10938Q301.34375 383.10938 301.64062 382.89062Q301.95312 382.67188 302.15625 382.07812L302.39062 381.42188L300.125 375.15625L301.3125 375.15625L302.89062 379.90625Z" fill-rule="nonzero"/><path stroke="#cccccc" stroke-width="1.0" stroke-linecap="butt" d="M375.0 203.0L205.0 203.0" fill-rule="nonzero"/><path fill="#000000" d="M59.8125 203.5625L56.109375 203.5625L56.109375 206.57812L60.40625 206.57812L60.40625 207.5L54.984375 207.5L54.984375 198.96875L60.359375 198.96875L60.359375 199.89062L56.109375 199.89062L56.109375 202.64062L59.8125 202.64062L59.8125 203.5625ZM61.5625 204.28125Q61.5625 202.8125 62.25 201.9375Q62.9375 201.04688 64.0625 201.04688Q65.171875 201.04688 65.828125 201.79688L65.828125 198.5L66.90625 198.5L66.90625 207.5L65.90625 207.5L65.859375 206.8125Q65.203125 207.625 64.046875 207.625Q62.953125 207.625 62.25 206.71875Q61.5625 205.8125 61.5625 204.35938L61.5625 204.28125ZM62.640625 204.40625Q62.640625 205.48438 63.078125 206.09375Q63.53125 206.70312 64.3125 206.70312Q65.34375 206.70312 65.828125 205.76562L65.828125 202.85938Q65.34375 201.96875 64.328125 201.96875Q63.53125 201.96875 63.078125 202.57812Q62.640625 203.1875 62.640625 204.40625ZM72.734375 206.875Q72.109375 207.625 70.875 207.625Q69.859375 207.625 69.328125 207.03125Q68.796875 206.4375 68.796875 205.28125L68.796875 201.15625L69.875 201.15625L69.875 205.25Q69.875 206.70312 71.046875 206.70312Q72.296875 206.70312 72.703125 205.76562L72.703125 201.15625L73.796875 201.15625L73.796875 207.5L72.765625 207.5L72.734375 206.875ZM78.359375 206.73438Q78.9375 206.73438 79.375 206.39062Q79.8125 206.03125 79.859375 205.5L80.890625 205.5Q80.859375 206.04688 80.5 206.54688Q80.15625 207.03125 79.578125 207.32812Q79.015625 207.625 78.359375 207.625Q77.0625 207.625 76.296875 206.76562Q75.546875 205.89062 75.546875 204.39062L75.546875 204.20312Q75.546875 203.28125 75.875 202.5625Q76.21875 201.84375 76.84375 201.45312Q77.484375 201.04688 78.359375 201.04688Q79.421875 201.04688 80.125 201.6875Q80.84375 202.3125 80.890625 203.34375L79.859375 203.34375Q79.8125 202.71875 79.390625 202.32812Q78.96875 201.9375 78.359375 201.9375Q77.53125 201.9375 77.078125 202.53125Q76.625 203.125 76.625 204.25L76.625 204.45312Q76.625 205.54688 77.078125 206.14062Q77.53125 206.73438 78.359375 206.73438ZM85.734375 207.5Q85.640625 207.3125 85.578125 206.82812Q84.828125 207.625 83.78125 207.625Q82.84375 207.625 82.234375 207.09375Q81.640625 206.5625 81.640625 205.73438Q81.640625 204.75 82.390625 204.20312Q83.140625 203.65625 84.515625 203.65625L85.5625 203.65625L85.5625 203.15625Q85.5625 202.59375 85.21875 202.26562Q84.890625 201.92188 84.21875 201.92188Q83.640625 201.92188 83.25 202.21875Q82.859375 202.5 82.859375 202.92188L81.765625 202.92188Q81.765625 202.4375 82.09375 202.0Q82.4375 201.5625 83.015625 201.3125Q83.59375 201.04688 84.28125 201.04688Q85.390625 201.04688 86.0 201.59375Q86.625 202.14062 86.65625 203.09375L86.65625 206.01562Q86.65625 206.89062 86.875 207.40625L86.875 207.5L85.734375 207.5ZM83.9375 206.67188Q84.453125 206.67188 84.90625 206.40625Q85.359375 206.14062 85.5625 205.71875L85.5625 204.42188L84.71875 204.42188Q82.71875 204.42188 82.71875 205.59375Q82.71875 206.09375 83.0625 206.39062Q83.40625 206.67188 83.9375 206.67188ZM90.296875 199.625L90.296875 201.15625L91.46875 201.15625L91.46875 202.0L90.296875 202.0L90.296875 205.92188Q90.296875 206.3125 90.453125 206.5Q90.609375 206.6875 90.984375 206.6875Q91.171875 206.6875 91.5 206.625L91.5 207.5Q91.078125 207.625 90.671875 207.625Q89.953125 207.625 89.578125 207.1875Q89.203125 206.73438 89.203125 205.92188L89.203125 202.0L88.046875 202.0L88.046875 201.15625L89.203125 201.15625L89.203125 199.625L90.296875 199.625ZM94.0 207.5L92.921875 207.5L92.921875 201.15625L94.0 201.15625L94.0 207.5ZM92.828125 199.48438Q92.828125 199.21875 92.984375 199.03125Q93.15625 198.84375 93.46875 198.84375Q93.78125 198.84375 93.9375 199.03125Q94.109375 199.21875 94.109375 199.48438Q94.109375 199.73438 93.9375 199.92188Q93.78125 200.09375 93.46875 200.09375Q93.15625 200.09375 92.984375 199.92188Q92.828125 199.73438 92.828125 199.48438ZM95.53125 204.26562Q95.53125 203.34375 95.890625 202.59375Q96.265625 201.84375 96.921875 201.45312Q97.578125 201.04688 98.40625 201.04688Q99.703125 201.04688 100.5 201.9375Q101.3125 202.82812 101.3125 204.32812L101.3125 204.40625Q101.3125 205.32812 100.953125 206.0625Q100.59375 206.79688 99.9375 207.21875Q99.28125 207.625 98.421875 207.625Q97.140625 207.625 96.328125 206.73438Q95.53125 205.82812 95.53125 204.34375L95.53125 204.26562ZM96.625 204.40625Q96.625 205.45312 97.109375 206.09375Q97.609375 206.73438 98.421875 206.73438Q99.25 206.73438 99.734375 206.09375Q100.21875 205.4375 100.21875 204.26562Q100.21875 203.23438 99.71875 202.59375Q99.234375 201.9375 98.40625 201.9375Q97.609375 201.9375 97.109375 202.57812Q96.625 203.20312 96.625 204.40625ZM103.84375 201.15625L103.875 201.95312Q104.609375 201.04688 105.78125 201.04688Q107.796875 201.04688 107.8125 203.3125L107.8125 207.5L106.71875 207.5L106.71875 203.29688Q106.71875 202.625 106.40625 202.29688Q106.109375 201.96875 105.453125 201.96875Q104.921875 201.96875 104.515625 202.25Q104.125 202.53125 103.90625 202.98438L103.90625 207.5L102.828125 207.5L102.828125 201.15625L103.84375 201.15625ZM116.734375 207.5Q116.640625 207.3125 116.578125 206.82812Q115.828125 207.625 114.78125 207.625Q113.84375 207.625 113.234375 207.09375Q112.640625 206.5625 112.640625 205.73438Q112.640625 204.75 113.390625 204.20312Q114.140625 203.65625 115.515625 203.65625L116.5625 203.65625L116.5625 203.15625Q116.5625 202.59375 116.21875 202.26562Q115.890625 201.92188 115.21875 201.92188Q114.640625 201.92188 114.25 202.21875Q113.859375 202.5 113.859375 202.92188L112.765625 202.92188Q112.765625 202.4375 113.09375 202.0Q113.4375 201.5625 114.015625 201.3125Q114.59375 201.04688 115.28125 201.04688Q116.390625 201.04688 117.0 201.59375Q117.625 202.14062 117.65625 203.09375L117.65625 206.01562Q117.65625 206.89062 117.875 207.40625L117.875 207.5L116.734375 207.5ZM114.9375 206.67188Q115.453125 206.67188 115.90625 206.40625Q116.359375 206.14062 116.5625 205.71875L116.5625 204.42188L115.71875 204.42188Q113.71875 204.42188 113.71875 205.59375Q113.71875 206.09375 114.0625 206.39062Q114.40625 206.67188 114.9375 206.67188ZM120.84375 201.15625L120.875 201.95312Q121.609375 201.04688 122.78125 201.04688Q124.796875 201.04688 124.8125 203.3125L124.8125 207.5L123.71875 207.5L123.71875 203.29688Q123.71875 202.625 123.40625 202.29688Q123.109375 201.96875 122.453125 201.96875Q121.921875 201.96875 121.515625 202.25Q121.125 202.53125 120.90625 202.98438L120.90625 207.5L119.828125 207.5L119.828125 201.15625L120.84375 201.15625ZM126.5625 204.28125Q126.5625 202.8125 127.25 201.9375Q127.9375 201.04688 129.0625 201.04688Q130.17188 201.04688 130.82812 201.79688L130.82812 198.5L131.90625 198.5L131.90625 207.5L130.90625 207.5L130.85938 206.8125Q130.20312 207.625 129.04688 207.625Q127.953125 207.625 127.25 206.71875Q126.5625 205.8125 126.5625 204.35938L126.5625 204.28125ZM127.640625 204.40625Q127.640625 205.48438 128.07812 206.09375Q128.53125 206.70312 129.3125 206.70312Q130.34375 206.70312 130.82812 205.76562L130.82812 202.85938Q130.34375 201.96875 129.32812 201.96875Q128.53125 201.96875 128.07812 202.57812Q127.640625 203.1875 127.640625 204.40625ZM139.45312 207.625Q138.15625 207.625 137.34375 206.78125Q136.54688 205.92188 136.54688 204.5L136.54688 204.3125Q136.54688 203.35938 136.90625 202.625Q137.26562 201.875 137.90625 201.46875Q138.5625 201.04688 139.3125 201.04688Q140.54688 201.04688 141.23438 201.85938Q141.92188 202.67188 141.92188 204.1875L141.92188 204.64062L137.625 204.64062Q137.65625 205.57812 138.17188 206.15625Q138.70312 206.73438 139.51562 206.73438Q140.07812 206.73438 140.46875 206.5Q140.875 206.26562 141.1875 205.875L141.84375 206.39062Q141.04688 207.625 139.45312 207.625ZM139.3125 201.9375Q138.65625 201.9375 138.20312 202.42188Q137.76562 202.89062 137.67188 203.75L140.84375 203.75L140.84375 203.67188Q140.79688 202.84375 140.39062 202.39062Q140.0 201.9375 139.3125 201.9375ZM143.84375 201.15625L143.875 201.85938Q144.5625 201.04688 145.75 201.04688Q147.07812 201.04688 147.5625 202.0625Q147.875 201.60938 148.375 201.32812Q148.89062 201.04688 149.57812 201.04688Q151.67188 201.04688 151.70312 203.25L151.70312 207.5L150.625 207.5L150.625 203.3125Q150.625 202.64062 150.3125 202.3125Q150.0 201.96875 149.26562 201.96875Q148.65625 201.96875 148.25 202.32812Q147.85938 202.6875 147.79688 203.29688L147.79688 207.5L146.71875 207.5L146.71875 203.34375Q146.71875 201.96875 145.35938 201.96875Q144.29688 201.96875 143.90625 202.875L143.90625 207.5L142.8125 207.5L142.8125 201.15625L143.84375 201.15625ZM159.17188 204.40625Q159.17188 205.84375 158.51562 206.73438Q157.85938 207.625 156.71875 207.625Q155.5625 207.625 154.90625 206.89062L154.90625 209.9375L153.82812 209.9375L153.82812 201.15625L154.8125 201.15625L154.85938 201.85938Q155.53125 201.04688 156.70312 201.04688Q157.84375 201.04688 158.5 201.90625Q159.17188 202.76562 159.17188 204.29688L159.17188 204.40625ZM158.09375 204.28125Q158.09375 203.20312 157.625 202.59375Q157.17188 201.96875 156.375 201.96875Q155.39062 201.96875 154.90625 202.82812L154.90625 205.85938Q155.39062 206.73438 156.39062 206.73438Q157.17188 206.73438 157.625 206.125Q158.09375 205.5 158.09375 204.28125ZM162.0 207.5L160.92188 207.5L160.92188 198.5L162.0 198.5L162.0 207.5ZM163.53125 204.26562Q163.53125 203.34375 163.89062 202.59375Q164.26562 201.84375 164.92188 201.45312Q165.57812 201.04688 166.40625 201.04688Q167.70312 201.04688 168.5 201.9375Q169.3125 202.82812 169.3125 204.32812L169.3125 204.40625Q169.3125 205.32812 168.95312 206.0625Q168.59375 206.79688 167.9375 207.21875Q167.28125 207.625 166.42188 207.625Q165.14062 207.625 164.32812 206.73438Q163.53125 205.82812 163.53125 204.34375L163.53125 204.26562ZM164.625 204.40625Q164.625 205.45312 165.10938 206.09375Q165.60938 206.73438 166.42188 206.73438Q167.25 206.73438 167.73438 206.09375Q168.21875 205.4375 168.21875 204.26562Q168.21875 203.23438 167.71875 202.59375Q167.23438 201.9375 166.40625 201.9375Q165.60938 201.9375 165.10938 202.57812Q164.625 203.20312 164.625 204.40625ZM172.89062 205.90625L174.375 201.15625L175.53125 201.15625L172.98438 208.48438Q172.39062 210.0625 171.10938 210.0625L170.89062 210.04688L170.5 209.96875L170.5 209.09375L170.78125 209.10938Q171.34375 209.10938 171.64062 208.89062Q171.95312 208.67188 172.15625 208.07812L172.39062 207.42188L170.125 201.15625L171.3125 201.15625L172.89062 205.90625ZM177.84375 201.15625L177.875 201.85938Q178.5625 201.04688 179.75 201.04688Q181.07812 201.04688 181.5625 202.0625Q181.875 201.60938 182.375 201.32812Q182.89062 201.04688 183.57812 201.04688Q185.67188 201.04688 185.70312 203.25L185.70312 207.5L184.625 207.5L184.625 203.3125Q184.625 202.64062 184.3125 202.3125Q184.0 201.96875 183.26562 201.96875Q182.65625 201.96875 182.25 202.32812Q181.85938 202.6875 181.79688 203.29688L181.79688 207.5L180.71875 207.5L180.71875 203.34375Q180.71875 201.96875 179.35938 201.96875Q178.29688 201.96875 177.90625 202.875L177.90625 207.5L176.8125 207.5L176.8125 201.15625L177.84375 201.15625ZM190.45312 207.625Q189.15625 207.625 188.34375 206.78125Q187.54688 205.92188 187.54688 204.5L187.54688 204.3125Q187.54688 203.35938 187.90625 202.625Q188.26562 201.875 188.90625 201.46875Q189.5625 201.04688 190.3125 201.04688Q191.54688 201.04688 192.23438 201.85938Q192.92188 202.67188 192.92188 204.1875L192.92188 204.64062L188.625 204.64062Q188.65625 205.57812 189.17188 206.15625Q189.70312 206.73438 190.51562 206.73438Q191.07812 206.73438 191.46875 206.5Q191.875 206.26562 192.1875 205.875L192.84375 206.39062Q192.04688 207.625 190.45312 207.625ZM190.3125 201.9375Q189.65625 201.9375 189.20312 202.42188Q188.76562 202.89062 188.67188 203.75L191.84375 203.75L191.84375 203.67188Q191.79688 202.84375 191.39062 202.39062Q191.0 201.9375 190.3125 201.9375ZM194.84375 201.15625L194.875 201.95312Q195.60938 201.04688 196.78125 201.04688Q198.79688 201.04688 198.8125 203.3125L198.8125 207.5L197.71875 207.5L197.71875 203.29688Q197.71875 202.625 197.40625 202.29688Q197.10938 201.96875 196.45312 201.96875Q195.92188 201.96875 195.51562 202.25Q195.125 202.53125 194.90625 202.98438L194.90625 207.5L193.82812 207.5L193.82812 201.15625L194.84375 201.15625ZM202.29688 199.625L202.29688 201.15625L203.46875 201.15625L203.46875 202.0L202.29688 202.0L202.29688 205.92188Q202.29688 206.3125 202.45312 206.5Q202.60938 206.6875 202.98438 206.6875Q203.17188 206.6875 203.5 206.625L203.5 207.5Q203.07812 207.625 202.67188 207.625Q201.95312 207.625 201.57812 207.1875Q201.20312 206.73438 201.20312 205.92188L201.20312 202.0L200.04688 202.0L200.04688 201.15625L201.20312 201.15625L201.20312 199.625L202.29688 199.625Z" fill-rule="nonzero"/><path stroke="#cccccc" stroke-width="1.0" stroke-linecap="butt" d="M375.0 203.0L254.0 82.0" fill-rule="nonzero"/><path fill="#000000" d="M116.390625 25.890625L113.640625 25.890625L113.640625 33.5L112.53125 33.5L112.53125 25.890625L109.78125 25.890625L109.78125 24.96875L116.390625 24.96875L116.390625 25.890625ZM118.40625 27.921875Q119.125 27.046875 120.28125 27.046875Q122.296875 27.046875 122.3125 29.3125L122.3125 33.5L121.21875 33.5L121.21875 29.296875Q121.21875 28.625 120.90625 28.296875Q120.609375 27.96875 119.953125 27.96875Q119.421875 27.96875 119.015625 28.25Q118.625 28.53125 118.40625 28.984375L118.40625 33.5L117.328125 33.5L117.328125 24.5L118.40625 24.5L118.40625 27.921875ZM125.5 33.5L124.421875 33.5L124.421875 27.15625L125.5 27.15625L125.5 33.5ZM124.328125 25.484375Q124.328125 25.21875 124.484375 25.03125Q124.65625 24.84375 124.96875 24.84375Q125.28125 24.84375 125.4375 25.03125Q125.609375 25.21875 125.609375 25.484375Q125.609375 25.734375 125.4375 25.921875Q125.28125 26.09375 124.96875 26.09375Q124.65625 26.09375 124.484375 25.921875Q124.328125 25.734375 124.328125 25.484375ZM128.34375 27.15625L128.375 27.953125Q129.10938 27.046875 130.28125 27.046875Q132.29688 27.046875 132.3125 29.3125L132.3125 33.5L131.21875 33.5L131.21875 29.296875Q131.21875 28.625 130.90625 28.296875Q130.60938 27.96875 129.95312 27.96875Q129.42188 27.96875 129.01562 28.25Q128.625 28.53125 128.40625 28.984375L128.40625 33.5L127.328125 33.5L127.328125 27.15625L128.34375 27.15625ZM136.09375 30.5625L135.40625 31.265625L135.40625 33.5L134.32812 33.5L134.32812 24.5L135.40625 24.5L135.40625 29.9375L135.98438 29.25L137.96875 27.15625L139.28125 27.15625L136.8125 29.8125L139.57812 33.5L138.29688 33.5L136.09375 30.5625ZM141.5 33.5L140.42188 33.5L140.42188 27.15625L141.5 27.15625L141.5 33.5ZM140.32812 25.484375Q140.32812 25.21875 140.48438 25.03125Q140.65625 24.84375 140.96875 24.84375Q141.28125 24.84375 141.4375 25.03125Q141.60938 25.21875 141.60938 25.484375Q141.60938 25.734375 141.4375 25.921875Q141.28125 26.09375 140.96875 26.09375Q140.65625 26.09375 140.48438 25.921875Q140.32812 25.734375 140.32812 25.484375ZM144.34375 27.15625L144.375 27.953125Q145.10938 27.046875 146.28125 27.046875Q148.29688 27.046875 148.3125 29.3125L148.3125 33.5L147.21875 33.5L147.21875 29.296875Q147.21875 28.625 146.90625 28.296875Q146.60938 27.96875 145.95312 27.96875Q145.42188 27.96875 145.01562 28.25Q144.625 28.53125 144.40625 28.984375L144.40625 33.5L143.32812 33.5L143.32812 27.15625L144.34375 27.15625ZM150.0625 30.28125Q150.0625 28.796875 150.75 27.921875Q151.4375 27.046875 152.5625 27.046875Q153.71875 27.046875 154.375 27.859375L154.42188 27.15625L155.42188 27.15625L155.42188 33.34375Q155.42188 34.578125 154.6875 35.28125Q153.95312 36.0 152.73438 36.0Q152.04688 36.0 151.39062 35.703125Q150.73438 35.40625 150.39062 34.90625L150.95312 34.25Q151.64062 35.109375 152.65625 35.109375Q153.4375 35.109375 153.875 34.65625Q154.32812 34.21875 154.32812 33.40625L154.32812 32.859375Q153.67188 33.625 152.54688 33.625Q151.4375 33.625 150.75 32.734375Q150.0625 31.828125 150.0625 30.28125ZM151.15625 30.40625Q151.15625 31.46875 151.59375 32.09375Q152.03125 32.703125 152.82812 32.703125Q153.84375 32.703125 154.32812 31.765625L154.32812 28.875Q153.82812 27.96875 152.82812 27.96875Q152.04688 27.96875 151.59375 28.578125Q151.15625 29.1875 151.15625 30.40625ZM157.28125 35.203125L156.67188 34.78125Q157.21875 34.015625 157.25 33.1875L157.25 32.21875L158.3125 32.21875L158.3125 33.0625Q158.3125 33.65625 158.01562 34.25Q157.71875 34.84375 157.28125 35.203125ZM167.6875 30.40625Q167.6875 31.859375 167.01562 32.75Q166.35938 33.625 165.23438 33.625Q164.03125 33.625 163.375 32.765625L163.3125 33.5L162.32812 33.5L162.32812 24.5L163.40625 24.5L163.40625 27.859375Q164.0625 27.046875 165.21875 27.046875Q166.375 27.046875 167.03125 27.921875Q167.6875 28.78125 167.6875 30.3125L167.6875 30.40625ZM166.60938 30.28125Q166.60938 29.171875 166.17188 28.578125Q165.75 27.96875 164.95312 27.96875Q163.875 27.96875 163.40625 28.953125L163.40625 31.703125Q163.90625 32.703125 164.95312 32.703125Q165.73438 32.703125 166.17188 32.09375Q166.60938 31.484375 166.60938 30.28125ZM171.95312 33.625Q170.65625 33.625 169.84375 32.78125Q169.04688 31.921875 169.04688 30.5L169.04688 30.3125Q169.04688 29.359375 169.40625 28.625Q169.76562 27.875 170.40625 27.46875Q171.0625 27.046875 171.8125 27.046875Q173.04688 27.046875 173.73438 27.859375Q174.42188 28.671875 174.42188 30.1875L174.42188 30.640625L170.125 30.640625Q170.15625 31.578125 170.67188 32.15625Q171.20312 32.734375 172.01562 32.734375Q172.57812 32.734375 172.96875 32.5Q173.375 32.265625 173.6875 31.875L174.34375 32.390625Q173.54688 33.625 171.95312 33.625ZM171.8125 27.9375Q171.15625 27.9375 170.70312 28.421875Q170.26562 28.890625 170.17188 29.75L173.34375 29.75L173.34375 29.671875Q173.29688 28.84375 172.89062 28.390625Q172.5 27.9375 171.8125 27.9375ZM176.40625 27.921875Q177.125 27.046875 178.28125 27.046875Q180.29688 27.046875 180.3125 29.3125L180.3125 33.5L179.21875 33.5L179.21875 29.296875Q179.21875 28.625 178.90625 28.296875Q178.60938 27.96875 177.95312 27.96875Q177.42188 27.96875 177.01562 28.25Q176.625 28.53125 176.40625 28.984375L176.40625 33.5L175.32812 33.5L175.32812 24.5L176.40625 24.5L176.40625 27.921875ZM186.23438 33.5Q186.14062 33.3125 186.07812 32.828125Q185.32812 33.625 184.28125 33.625Q183.34375 33.625 182.73438 33.09375Q182.14062 32.5625 182.14062 31.734375Q182.14062 30.75 182.89062 30.203125Q183.64062 29.65625 185.01562 29.65625L186.0625 29.65625L186.0625 29.15625Q186.0625 28.59375 185.71875 28.265625Q185.39062 27.921875 184.71875 27.921875Q184.14062 27.921875 183.75 28.21875Q183.35938 28.5 183.35938 28.921875L182.26562 28.921875Q182.26562 28.4375 182.59375 28.0Q182.9375 27.5625 183.51562 27.3125Q184.09375 27.046875 184.78125 27.046875Q185.89062 27.046875 186.5 27.59375Q187.125 28.140625 187.15625 29.09375L187.15625 32.015625Q187.15625 32.890625 187.375 33.40625L187.375 33.5L186.23438 33.5ZM184.4375 32.671875Q184.95312 32.671875 185.40625 32.40625Q185.85938 32.140625 186.0625 31.71875L186.0625 30.421875L185.21875 30.421875Q183.21875 30.421875 183.21875 31.59375Q183.21875 32.09375 183.5625 32.390625Q183.90625 32.671875 184.4375 32.671875ZM191.40625 32.03125L192.98438 27.15625L194.09375 27.15625L191.8125 33.5L190.98438 33.5L188.6875 27.15625L189.79688 27.15625L191.40625 32.03125ZM196.5 33.5L195.42188 33.5L195.42188 27.15625L196.5 27.15625L196.5 33.5ZM195.32812 25.484375Q195.32812 25.21875 195.48438 25.03125Q195.65625 24.84375 195.96875 24.84375Q196.28125 24.84375 196.4375 25.03125Q196.60938 25.21875 196.60938 25.484375Q196.60938 25.734375 196.4375 25.921875Q196.28125 26.09375 195.96875 26.09375Q195.65625 26.09375 195.48438 25.921875Q195.32812 25.734375 195.32812 25.484375ZM198.03125 30.265625Q198.03125 29.34375 198.39062 28.59375Q198.76562 27.84375 199.42188 27.453125Q200.07812 27.046875 200.90625 27.046875Q202.20312 27.046875 203.0 27.9375Q203.8125 28.828125 203.8125 30.328125L203.8125 30.40625Q203.8125 31.328125 203.45312 32.0625Q203.09375 32.796875 202.4375 33.21875Q201.78125 33.625 200.92188 33.625Q199.64062 33.625 198.82812 32.734375Q198.03125 31.828125 198.03125 30.34375L198.03125 30.265625ZM199.125 30.40625Q199.125 31.453125 199.60938 32.09375Q200.10938 32.734375 200.92188 32.734375Q201.75 32.734375 202.23438 32.09375Q202.71875 31.4375 202.71875 30.265625Q202.71875 29.234375 202.21875 28.59375Q201.73438 27.9375 200.90625 27.9375Q200.10938 27.9375 199.60938 28.578125Q199.125 29.203125 199.125 30.40625ZM209.23438 32.875Q208.60938 33.625 207.375 33.625Q206.35938 33.625 205.82812 33.03125Q205.29688 32.4375 205.29688 31.28125L205.29688 27.15625L206.375 27.15625L206.375 31.25Q206.375 32.703125 207.54688 32.703125Q208.79688 32.703125 209.20312 31.765625L209.20312 27.15625L210.29688 27.15625L210.29688 33.5L209.26562 33.5L209.23438 32.875ZM215.39062 28.125Q215.14062 28.09375 214.85938 28.09375Q213.78125 28.09375 213.40625 29.0L213.40625 33.5L212.32812 33.5L212.32812 27.15625L213.375 27.15625L213.39062 27.890625Q213.92188 27.046875 214.90625 27.046875Q215.21875 27.046875 215.39062 27.125L215.39062 28.125ZM220.01562 31.8125Q220.01562 31.375 219.67188 31.140625Q219.34375 30.890625 218.51562 30.71875Q217.70312 30.546875 217.21875 30.296875Q216.73438 30.046875 216.5 29.71875Q216.28125 29.375 216.28125 28.90625Q216.28125 28.125 216.9375 27.59375Q217.59375 27.046875 218.625 27.046875Q219.70312 27.046875 220.35938 27.609375Q221.03125 28.15625 221.03125 29.015625L219.95312 29.015625Q219.95312 28.578125 219.5625 28.265625Q219.1875 27.9375 218.625 27.9375Q218.03125 27.9375 217.6875 28.203125Q217.35938 28.453125 217.35938 28.859375Q217.35938 29.25 217.67188 29.453125Q217.98438 29.65625 218.79688 29.84375Q219.60938 30.015625 220.10938 30.265625Q220.60938 30.515625 220.84375 30.875Q221.09375 31.234375 221.09375 31.734375Q221.09375 32.59375 220.40625 33.109375Q219.73438 33.625 218.65625 33.625Q217.89062 33.625 217.29688 33.359375Q216.71875 33.078125 216.39062 32.59375Q216.0625 32.109375 216.0625 31.546875L217.14062 31.546875Q217.17188 32.09375 217.57812 32.421875Q217.98438 32.734375 218.65625 32.734375Q219.26562 32.734375 219.64062 32.484375Q220.01562 32.234375 220.01562 31.8125ZM229.23438 33.5Q229.14062 33.3125 229.07812 32.828125Q228.32812 33.625 227.28125 33.625Q226.34375 33.625 225.73438 33.09375Q225.14062 32.5625 225.14062 31.734375Q225.14062 30.75 225.89062 30.203125Q226.64062 29.65625 228.01562 29.65625L229.0625 29.65625L229.0625 29.15625Q229.0625 28.59375 228.71875 28.265625Q228.39062 27.921875 227.71875 27.921875Q227.14062 27.921875 226.75 28.21875Q226.35938 28.5 226.35938 28.921875L225.26562 28.921875Q225.26562 28.4375 225.59375 28.0Q225.9375 27.5625 226.51562 27.3125Q227.09375 27.046875 227.78125 27.046875Q228.89062 27.046875 229.5 27.59375Q230.125 28.140625 230.15625 29.09375L230.15625 32.015625Q230.15625 32.890625 230.375 33.40625L230.375 33.5L229.23438 33.5ZM227.4375 32.671875Q227.95312 32.671875 228.40625 32.40625Q228.85938 32.140625 229.0625 31.71875L229.0625 30.421875L228.21875 30.421875Q226.21875 30.421875 226.21875 31.59375Q226.21875 32.09375 226.5625 32.390625Q226.90625 32.671875 227.4375 32.671875ZM233.34375 27.15625L233.375 27.953125Q234.10938 27.046875 235.28125 27.046875Q237.29688 27.046875 237.3125 29.3125L237.3125 33.5L236.21875 33.5L236.21875 29.296875Q236.21875 28.625 235.90625 28.296875Q235.60938 27.96875 234.95312 27.96875Q234.42188 27.96875 234.01562 28.25Q233.625 28.53125 233.40625 28.984375L233.40625 33.5L232.32812 33.5L232.32812 27.15625L233.34375 27.15625ZM239.0625 30.28125Q239.0625 28.8125 239.75 27.9375Q240.4375 27.046875 241.5625 27.046875Q242.67188 27.046875 243.32812 27.796875L243.32812 24.5L244.40625 24.5L244.40625 33.5L243.40625 33.5L243.35938 32.8125Q242.70312 33.625 241.54688 33.625Q240.45312 33.625 239.75 32.71875Q239.0625 31.8125 239.0625 30.359375L239.0625 30.28125ZM240.14062 30.40625Q240.14062 31.484375 240.57812 32.09375Q241.03125 32.703125 241.8125 32.703125Q242.84375 32.703125 243.32812 31.765625L243.32812 28.859375Q242.84375 27.96875 241.82812 27.96875Q241.03125 27.96875 240.57812 28.578125Q240.14062 29.1875 240.14062 30.40625ZM253.23438 33.5Q253.14062 33.3125 253.07812 32.828125Q252.32812 33.625 251.28125 33.625Q250.34375 33.625 249.73438 33.09375Q249.14062 32.5625 249.14062 31.734375Q249.14062 30.75 249.89062 30.203125Q250.64062 29.65625 252.01562 29.65625L253.0625 29.65625L253.0625 29.15625Q253.0625 28.59375 252.71875 28.265625Q252.39062 27.921875 251.71875 27.921875Q251.14062 27.921875 250.75 28.21875Q250.35938 28.5 250.35938 28.921875L249.26562 28.921875Q249.26562 28.4375 249.59375 28.0Q249.9375 27.5625 250.51562 27.3125Q251.09375 27.046875 251.78125 27.046875Q252.89062 27.046875 253.5 27.59375Q254.125 28.140625 254.15625 29.09375L254.15625 32.015625Q254.15625 32.890625 254.375 33.40625L254.375 33.5L253.23438 33.5ZM251.4375 32.671875Q251.95312 32.671875 252.40625 32.40625Q252.85938 32.140625 253.0625 31.71875L253.0625 30.421875L252.21875 30.421875Q250.21875 30.421875 250.21875 31.59375Q250.21875 32.09375 250.5625 32.390625Q250.90625 32.671875 251.4375 32.671875ZM257.79688 25.625L257.79688 27.15625L258.96875 27.15625L258.96875 28.0L257.79688 28.0L257.79688 31.921875Q257.79688 32.3125 257.95312 32.5Q258.10938 32.6875 258.48438 32.6875Q258.67188 32.6875 259.0 32.625L259.0 33.5Q258.57812 33.625 258.17188 33.625Q257.45312 33.625 257.07812 33.1875Q256.70312 32.734375 256.70312 31.921875L256.70312 28.0L255.54688 28.0L255.54688 27.15625L256.70312 27.15625L256.70312 25.625L257.79688 25.625ZM261.79688 25.625L261.79688 27.15625L262.96875 27.15625L262.96875 28.0L261.79688 28.0L261.79688 31.921875Q261.79688 32.3125 261.95312 32.5Q262.10938 32.6875 262.48438 32.6875Q262.67188 32.6875 263.0 32.625L263.0 33.5Q262.57812 33.625 262.17188 33.625Q261.45312 33.625 261.07812 33.1875Q260.70312 32.734375 260.70312 31.921875L260.70312 28.0L259.54688 28.0L259.54688 27.15625L260.70312 27.15625L260.70312 25.625L261.79688 25.625ZM265.5 33.5L264.42188 33.5L264.42188 27.15625L265.5 27.15625L265.5 33.5ZM264.32812 25.484375Q264.32812 25.21875 264.48438 25.03125Q264.65625 24.84375 264.96875 24.84375Q265.28125 24.84375 265.4375 25.03125Q265.60938 25.21875 265.60938 25.484375Q265.60938 25.734375 265.4375 25.921875Q265.28125 26.09375 264.96875 26.09375Q264.65625 26.09375 264.48438 25.921875Q264.32812 25.734375 264.32812 25.484375ZM271.23438 32.875Q270.60938 33.625 269.375 33.625Q268.35938 33.625 267.82812 33.03125Q267.29688 32.4375 267.29688 31.28125L267.29688 27.15625L268.375 27.15625L268.375 31.25Q268.375 32.703125 269.54688 32.703125Q270.79688 32.703125 271.20312 31.765625L271.20312 27.15625L272.29688 27.15625L272.29688 33.5L271.26562 33.5L271.23438 32.875ZM274.0625 30.28125Q274.0625 28.8125 274.75 27.9375Q275.4375 27.046875 276.5625 27.046875Q277.67188 27.046875 278.32812 27.796875L278.32812 24.5L279.40625 24.5L279.40625 33.5L278.40625 33.5L278.35938 32.8125Q277.70312 33.625 276.54688 33.625Q275.45312 33.625 274.75 32.71875Q274.0625 31.8125 274.0625 30.359375L274.0625 30.28125ZM275.14062 30.40625Q275.14062 31.484375 275.57812 32.09375Q276.03125 32.703125 276.8125 32.703125Q277.84375 32.703125 278.32812 31.765625L278.32812 28.859375Q277.84375 27.96875 276.82812 27.96875Q276.03125 27.96875 275.57812 28.578125Q275.14062 29.1875 275.14062 30.40625ZM283.95312 33.625Q282.65625 33.625 281.84375 32.78125Q281.04688 31.921875 281.04688 30.5L281.04688 30.3125Q281.04688 29.359375 281.40625 28.625Q281.76562 27.875 282.40625 27.46875Q283.0625 27.046875 283.8125 27.046875Q285.04688 27.046875 285.73438 27.859375Q286.42188 28.671875 286.42188 30.1875L286.42188 30.640625L282.125 30.640625Q282.15625 31.578125 282.67188 32.15625Q283.20312 32.734375 284.01562 32.734375Q284.57812 32.734375 284.96875 32.5Q285.375 32.265625 285.6875 31.875L286.34375 32.390625Q285.54688 33.625 283.95312 33.625ZM283.8125 27.9375Q283.15625 27.9375 282.70312 28.421875Q282.26562 28.890625 282.17188 29.75L285.34375 29.75L285.34375 29.671875Q285.29688 28.84375 284.89062 28.390625Q284.5 27.9375 283.8125 27.9375ZM291.01562 31.8125Q291.01562 31.375 290.67188 31.140625Q290.34375 30.890625 289.51562 30.71875Q288.70312 30.546875 288.21875 30.296875Q287.73438 30.046875 287.5 29.71875Q287.28125 29.375 287.28125 28.90625Q287.28125 28.125 287.9375 27.59375Q288.59375 27.046875 289.625 27.046875Q290.70312 27.046875 291.35938 27.609375Q292.03125 28.15625 292.03125 29.015625L290.95312 29.015625Q290.95312 28.578125 290.5625 28.265625Q290.1875 27.9375 289.625 27.9375Q289.03125 27.9375 288.6875 28.203125Q288.35938 28.453125 288.35938 28.859375Q288.35938 29.25 288.67188 29.453125Q288.98438 29.65625 289.79688 29.84375Q290.60938 30.015625 291.10938 30.265625Q291.60938 30.515625 291.84375 30.875Q292.09375 31.234375 292.09375 31.734375Q292.09375 32.59375 291.40625 33.109375Q290.73438 33.625 289.65625 33.625Q288.89062 33.625 288.29688 33.359375Q287.71875 33.078125 287.39062 32.59375Q287.0625 32.109375 287.0625 31.546875L288.14062 31.546875Q288.17188 32.09375 288.57812 32.421875Q288.98438 32.734375 289.65625 32.734375Q290.26562 32.734375 290.64062 32.484375Q291.01562 32.234375 291.01562 31.8125Z" fill-rule="nonzero"/><path stroke="#cccccc" stroke-width="1.0" stroke-linecap="butt" d="M375.0 203.0L375.0 33.0" fill-rule="nonzero"/><path stroke="#0000ff" stroke-width="8.0" stroke-linecap="butt" d="M375.0 160.0L450.0 128.0L524.0 203.0L270.0 308.0L268.0 203.0L270.0 98.0Z" fill-rule="nonzero"/><path fill="#0000ff" d="M375.0 155.5L378.89713 162.25L371.10287 162.25Z" fill-rule="nonzero"/><path fill="#0000ff" d="M450.0 123.5L453.89713 130.25L446.10287 130.25Z" fill-rule="nonzero"/><path fill="#0000ff" d="M524.0 198.5L527.8971 205.25L520.1029 205.25Z" fill-rule="nonzero"/><path fill="#0000ff" d="M270.0 303.5L273.89713 310.25L266.10287 310.25Z" fill-rule="nonzero"/><path fill="#0000ff" d="M268.0 198.5L271.89713 205.25L264.10287 205.25Z" fill-rule="nonzero"/><path fill="#0000ff" d="M270.0 93.5L273.89713 100.25L266.10287 100.25Z" fill-rule="nonzero"/><path stroke="#ffffff" stroke-width="3.0" stroke-linejoin="round" stroke-linecap="round" d="M638.9844 11.0L642.28125 2.40625L643.5 2.40625L647.0156 11.0L645.7344 11.0L644.71875 8.390625L641.1406 8.390625L640.1875 11.0L638.9844 11.0ZM641.46875 7.46875L644.375 7.46875L643.4844 5.09375Q643.0625 4.015625 642.875 3.3125Q642.7031 4.140625 642.40625 4.953125L641.46875 7.46875ZM646.375 9.140625L647.40625 8.984375Q647.5 9.609375 647.8906 9.9375Q648.2969 10.265625 649.03125 10.265625Q649.75 10.265625 650.09375 9.984375Q650.4531 9.6875 650.4531 9.28125Q650.4531 8.921875 650.1406 8.71875Q649.9219 8.578125 649.0625 8.359375Q647.90625 8.0625 647.4531 7.859375Q647.0156 7.640625 646.78125 7.265625Q646.5469 6.890625 646.5469 6.421875Q646.5469 6.015625 646.7344 5.65625Q646.9219 5.296875 647.25 5.0625Q647.5 4.890625 647.9219 4.765625Q648.34375 4.640625 648.84375 4.640625Q649.5625 4.640625 650.1094 4.859375Q650.6719 5.0625 650.9375 5.421875Q651.2031 5.78125 651.2969 6.375L650.2656 6.515625Q650.2031 6.046875 649.8594 5.78125Q649.53125 5.5 648.90625 5.5Q648.1875 5.5 647.875 5.75Q647.5625 5.984375 647.5625 6.3125Q647.5625 6.515625 647.6875 6.671875Q647.8281 6.84375 648.09375 6.953125Q648.25 7.015625 649.03125 7.21875Q650.15625 7.53125 650.59375 7.71875Q651.03125 7.90625 651.28125 8.265625Q651.53125 8.625 651.53125 9.171875Q651.53125 9.703125 651.21875 10.171875Q650.9219 10.625 650.34375 10.890625Q649.7656 11.140625 649.03125 11.140625Q647.8125 11.140625 647.1719 10.640625Q646.5469 10.125 646.375 9.140625ZM653.375 9.140625L654.40625 8.984375Q654.5 9.609375 654.8906 9.9375Q655.2969 10.265625 656.03125 10.265625Q656.75 10.265625 657.09375 9.984375Q657.4531 9.6875 657.4531 9.28125Q657.4531 8.921875 657.1406 8.71875Q656.9219 8.578125 656.0625 8.359375Q654.90625 8.0625 654.4531 7.859375Q654.0156 7.640625 653.78125 7.265625Q653.5469 6.890625 653.5469 6.421875Q653.5469 6.015625 653.7344 5.65625Q653.9219 5.296875 654.25 5.0625Q654.5 4.890625 654.9219 4.765625Q655.34375 4.640625 655.84375 4.640625Q656.5625 4.640625 657.1094 4.859375Q657.6719 5.0625 657.9375 5.421875Q658.2031 5.78125 658.2969 6.375L657.2656 6.515625Q657.2031 6.046875 656.8594 5.78125Q656.53125 5.5 655.90625 5.5Q655.1875 5.5 654.875 5.75Q654.5625 5.984375 654.5625 6.3125Q654.5625 6.515625 654.6875 6.671875Q654.8281 6.84375 655.09375 6.953125Q655.25 7.015625 656.03125 7.21875Q657.15625 7.53125 657.59375 7.71875Q658.03125 7.90625 658.28125 8.265625Q658.53125 8.625 658.53125 9.171875Q658.53125 9.703125 658.21875 10.171875Q657.9219 10.625 657.34375 10.890625Q656.7656 11.140625 656.03125 11.140625Q654.8125 11.140625 654.1719 10.640625Q653.5469 10.125 653.375 9.140625ZM665.0469 9.0L666.1406 9.125Q665.8906 10.078125 665.1875 10.609375Q664.4844 11.140625 663.40625 11.140625Q662.0469 11.140625 661.2344 10.296875Q660.4375 9.453125 660.4375 7.9375Q660.4375 6.375 661.25 5.515625Q662.0625 4.640625 663.34375 4.640625Q664.59375 4.640625 665.375 5.484375Q666.1719 6.328125 666.1719 7.875Q666.1719 7.96875 666.1719 8.15625L661.53125 8.15625Q661.59375 9.1875 662.1094 9.734375Q662.625 10.265625 663.40625 10.265625Q663.9844 10.265625 664.3906 9.96875Q664.8125 9.65625 665.0469 9.0ZM661.59375 7.296875L665.0625 7.296875Q665.0 6.5 664.6719 6.109375Q664.15625 5.5 663.3594 5.5Q662.625 5.5 662.125 5.984375Q661.6406 6.46875 661.59375 7.296875ZM667.375 9.140625L668.40625 8.984375Q668.5 9.609375 668.8906 9.9375Q669.2969 10.265625 670.03125 10.265625Q670.75 10.265625 671.09375 9.984375Q671.4531 9.6875 671.4531 9.28125Q671.4531 8.921875 671.1406 8.71875Q670.9219 8.578125 670.0625 8.359375Q668.90625 8.0625 668.4531 7.859375Q668.0156 7.640625 667.78125 7.265625Q667.5469 6.890625 667.5469 6.421875Q667.5469 6.015625 667.7344 5.65625Q667.9219 5.296875 668.25 5.0625Q668.5 4.890625 668.9219 4.765625Q669.34375 4.640625 669.84375 4.640625Q670.5625 4.640625 671.1094 4.859375Q671.6719 5.0625 671.9375 5.421875Q672.2031 5.78125 672.2969 6.375L671.2656 6.515625Q671.2031 6.046875 670.8594 5.78125Q670.53125 5.5 669.90625 5.5Q669.1875 5.5 668.875 5.75Q668.5625 5.984375 668.5625 6.3125Q668.5625 6.515625 668.6875 6.671875Q668.8281 6.84375 669.09375 6.953125Q669.25 7.015625 670.03125 7.21875Q671.15625 7.53125 671.59375 7.71875Q672.03125 7.90625 672.28125 8.265625Q672.53125 8.625 672.53125 9.171875Q672.53125 9.703125 672.21875 10.171875Q671.9219 10.625 671.34375 10.890625Q670.7656 11.140625 670.03125 11.140625Q668.8125 11.140625 668.1719 10.640625Q667.5469 10.125 667.375 9.140625ZM674.375 9.140625L675.40625 8.984375Q675.5 9.609375 675.8906 9.9375Q676.2969 10.265625 677.03125 10.265625Q677.75 10.265625 678.09375 9.984375Q678.4531 9.6875 678.4531 9.28125Q678.4531 8.921875 678.1406 8.71875Q677.9219 8.578125 677.0625 8.359375Q675.90625 8.0625 675.4531 7.859375Q675.0156 7.640625 674.78125 7.265625Q674.5469 6.890625 674.5469 6.421875Q674.5469 6.015625 674.7344 5.65625Q674.9219 5.296875 675.25 5.0625Q675.5 4.890625 675.9219 4.765625Q676.34375 4.640625 676.84375 4.640625Q677.5625 4.640625 678.1094 4.859375Q678.6719 5.0625 678.9375 5.421875Q679.2031 5.78125 679.2969 6.375L678.2656 6.515625Q678.2031 6.046875 677.8594 5.78125Q677.53125 5.5 676.90625 5.5Q676.1875 5.5 675.875 5.75Q675.5625 5.984375 675.5625 6.3125Q675.5625 6.515625 675.6875 6.671875Q675.8281 6.84375 676.09375 6.953125Q676.25 7.015625 677.03125 7.21875Q678.15625 7.53125 678.59375 7.71875Q679.03125 7.90625 679.28125 8.265625Q679.53125 8.625 679.53125 9.171875Q679.53125 9.703125 679.21875 10.171875Q678.9219 10.625 678.34375 10.890625Q677.7656 11.140625 677.03125 11.140625Q675.8125 11.140625 675.1719 10.640625Q674.5469 10.125 674.375 9.140625ZM681.7969 11.0L681.7969 4.78125L682.7344 4.78125L682.7344 5.65625Q683.03125 5.1875 683.5156 4.921875Q684.0 4.640625 684.625 4.640625Q685.3125 4.640625 685.75 4.921875Q686.2031 5.203125 686.375 5.71875Q687.125 4.640625 688.2969 4.640625Q689.2344 4.640625 689.71875 5.15625Q690.21875 5.65625 690.21875 6.734375L690.21875 11.0L689.1719 11.0L689.1719 7.078125Q689.1719 6.453125 689.0625 6.171875Q688.96875 5.890625 688.7031 5.71875Q688.4375 5.546875 688.0625 5.546875Q687.40625 5.546875 686.96875 5.984375Q686.5469 6.421875 686.5469 7.390625L686.5469 11.0L685.4844 11.0L685.4844 6.953125Q685.4844 6.25 685.21875 5.90625Q684.96875 5.546875 684.3906 5.546875Q683.9375 5.546875 683.5625 5.78125Q683.1875 6.015625 683.0156 6.46875Q682.84375 6.921875 682.84375 7.765625L682.84375 11.0L681.7969 11.0ZM697.0469 9.0L698.1406 9.125Q697.8906 10.078125 697.1875 10.609375Q696.4844 11.140625 695.40625 11.140625Q694.0469 11.140625 693.2344 10.296875Q692.4375 9.453125 692.4375 7.9375Q692.4375 6.375 693.25 5.515625Q694.0625 4.640625 695.34375 4.640625Q696.59375 4.640625 697.375 5.484375Q698.1719 6.328125 698.1719 7.875Q698.1719 7.96875 698.1719 8.15625L693.53125 8.15625Q693.59375 9.1875 694.1094 9.734375Q694.625 10.265625 695.40625 10.265625Q695.9844 10.265625 696.3906 9.96875Q696.8125 9.65625 697.0469 9.0ZM693.59375 7.296875L697.0625 7.296875Q697.0 6.5 696.6719 6.109375Q696.15625 5.5 695.3594 5.5Q694.625 5.5 694.125 5.984375Q693.6406 6.46875 693.59375 7.296875ZM699.7969 11.0L699.7969 4.78125L700.7344 4.78125L700.7344 5.65625Q701.4219 4.640625 702.71875 4.640625Q703.28125 4.640625 703.75 4.84375Q704.2344 5.046875 704.46875 5.375Q704.7031 5.703125 704.7969 6.140625Q704.84375 6.4375 704.84375 7.171875L704.84375 11.0L703.7969 11.0L703.7969 7.21875Q703.7969 6.5625 703.6719 6.25Q703.5469 5.9375 703.2344 5.75Q702.9219 5.546875 702.5 5.546875Q701.8281 5.546875 701.3281 5.984375Q700.84375 6.40625 700.84375 7.59375L700.84375 11.0L699.7969 11.0ZM709.09375 10.0625L709.25 10.984375Q708.7969 11.078125 708.4531 11.078125Q707.875 11.078125 707.5625 10.90625Q707.25 10.71875 707.1094 10.421875Q706.9844 10.125 706.9844 9.171875L706.9844 5.59375L706.21875 5.59375L706.21875 4.78125L706.9844 4.78125L706.9844 3.234375L708.03125 2.609375L708.03125 4.78125L709.09375 4.78125L709.09375 5.59375L708.03125 5.59375L708.03125 9.234375Q708.03125 9.6875 708.0781 9.8125Q708.1406 9.9375 708.2656 10.015625Q708.3906 10.09375 708.625 10.09375Q708.8125 10.09375 709.09375 10.0625ZM712.375 9.140625L713.40625 8.984375Q713.5 9.609375 713.8906 9.9375Q714.2969 10.265625 715.03125 10.265625Q715.75 10.265625 716.09375 9.984375Q716.4531 9.6875 716.4531 9.28125Q716.4531 8.921875 716.1406 8.71875Q715.9219 8.578125 715.0625 8.359375Q713.90625 8.0625 713.4531 7.859375Q713.0156 7.640625 712.78125 7.265625Q712.5469 6.890625 712.5469 6.421875Q712.5469 6.015625 712.7344 5.65625Q712.9219 5.296875 713.25 5.0625Q713.5 4.890625 713.9219 4.765625Q714.34375 4.640625 714.84375 4.640625Q715.5625 4.640625 716.1094 4.859375Q716.6719 5.0625 716.9375 5.421875Q717.2031 5.78125 717.2969 6.375L716.2656 6.515625Q716.2031 6.046875 715.8594 5.78125Q715.53125 5.5 714.90625 5.5Q714.1875 5.5 713.875 5.75Q713.5625 5.984375 713.5625 6.3125Q713.5625 6.515625 713.6875 6.671875Q713.8281 6.84375 714.09375 6.953125Q714.25 7.015625 715.03125 7.21875Q716.15625 7.53125 716.59375 7.71875Q717.03125 7.90625 717.28125 8.265625Q717.53125 8.625 717.53125 9.171875Q717.53125 9.703125 717.21875 10.171875Q716.9219 10.625 716.34375 10.890625Q715.7656 11.140625 715.03125 11.140625Q713.8125 11.140625 713.1719 10.640625Q712.5469 10.125 712.375 9.140625ZM723.8594 8.71875L724.8906 8.859375Q724.71875 9.921875 724.0156 10.53125Q723.3125 11.140625 722.2969 11.140625Q721.0156 11.140625 720.2344 10.3125Q719.46875 9.46875 719.46875 7.90625Q719.46875 6.90625 719.7969 6.15625Q720.1406 5.390625 720.8125 5.015625Q721.5 4.640625 722.3125 4.640625Q723.3125 4.640625 723.9531 5.15625Q724.6094 5.65625 724.7969 6.609375L723.7656 6.765625Q723.625 6.140625 723.25 5.828125Q722.875 5.5 722.34375 5.5Q721.5469 5.5 721.0469 6.078125Q720.5469 6.640625 720.5469 7.875Q720.5469 9.140625 721.03125 9.703125Q721.5156 10.265625 722.28125 10.265625Q722.90625 10.265625 723.3125 9.890625Q723.7344 9.515625 723.8594 8.71875ZM725.40625 7.890625Q725.40625 6.15625 726.3594 5.328125Q727.15625 4.640625 728.3125 4.640625Q729.59375 4.640625 730.40625 5.484375Q731.2344 6.3125 731.2344 7.796875Q731.2344 9.0 730.875 9.6875Q730.5156 10.375 729.8125 10.765625Q729.125 11.140625 728.3125 11.140625Q727.0156 11.140625 726.2031 10.3125Q725.40625 9.46875 725.40625 7.890625ZM726.4844 7.890625Q726.4844 9.078125 727.0 9.671875Q727.53125 10.265625 728.3125 10.265625Q729.1094 10.265625 729.625 9.671875Q730.1406 9.078125 730.1406 7.859375Q730.1406 6.703125 729.6094 6.109375Q729.09375 5.515625 728.3125 5.515625Q727.53125 5.515625 727.0 6.109375Q726.4844 6.6875 726.4844 7.890625ZM732.78125 11.0L732.78125 4.78125L733.7344 4.78125L733.7344 5.71875Q734.09375 5.0625 734.3906 4.859375Q734.7031 4.640625 735.0781 4.640625Q735.6094 4.640625 736.15625 4.96875L735.7969 5.953125Q735.40625 5.71875 735.03125 5.71875Q734.6719 5.71875 734.3906 5.9375Q734.125 6.140625 734.0156 6.515625Q733.8281 7.078125 733.8281 7.734375L733.8281 11.0L732.78125 11.0ZM741.0469 9.0L742.1406 9.125Q741.8906 10.078125 741.1875 10.609375Q740.4844 11.140625 739.40625 11.140625Q738.0469 11.140625 737.2344 10.296875Q736.4375 9.453125 736.4375 7.9375Q736.4375 6.375 737.25 5.515625Q738.0625 4.640625 739.34375 4.640625Q740.59375 4.640625 741.375 5.484375Q742.1719 6.328125 742.1719 7.875Q742.1719 7.96875 742.1719 8.15625L737.53125 8.15625Q737.59375 9.1875 738.1094 9.734375Q738.625 10.265625 739.40625 10.265625Q739.9844 10.265625 740.3906 9.96875Q740.8125 9.65625 741.0469 9.0ZM737.59375 7.296875L741.0625 7.296875Q741.0 6.5 740.6719 6.109375Q740.15625 5.5 739.3594 5.5Q738.625 5.5 738.125 5.984375Q737.6406 6.46875 737.59375 7.296875ZM743.375 9.140625L744.40625 8.984375Q744.5 9.609375 744.8906 9.9375Q745.2969 10.265625 746.03125 10.265625Q746.75 10.265625 747.09375 9.984375Q747.4531 9.6875 747.4531 9.28125Q747.4531 8.921875 747.1406 8.71875Q746.9219 8.578125 746.0625 8.359375Q744.90625 8.0625 744.4531 7.859375Q744.0156 7.640625 743.78125 7.265625Q743.5469 6.890625 743.5469 6.421875Q743.5469 6.015625 743.7344 5.65625Q743.9219 5.296875 744.25 5.0625Q744.5 4.890625 744.9219 4.765625Q745.34375 4.640625 745.84375 4.640625Q746.5625 4.640625 747.1094 4.859375Q747.6719 5.0625 747.9375 5.421875Q748.2031 5.78125 748.2969 6.375L747.2656 6.515625Q747.2031 6.046875 746.8594 5.78125Q746.53125 5.5 745.90625 5.5Q745.1875 5.5 744.875 5.75Q744.5625 5.984375 744.5625 6.3125Q744.5625 6.515625 744.6875 6.671875Q744.8281 6.84375 745.09375 6.953125Q745.25 7.015625 746.03125 7.21875Q747.15625 7.53125 747.59375 7.71875Q748.03125 7.90625 748.28125 8.265625Q748.53125 8.625 748.53125 9.171875Q748.53125 9.703125 748.21875 10.171875Q747.9219 10.625 747.34375 10.890625Q746.7656 11.140625 746.03125 11.140625Q744.8125 11.140625 744.1719 10.640625Q743.5469 10.125 743.375 9.140625Z" fill-rule="nonzero"/><path fill="#000000" d="M638.9844 11.0L642.28125 2.40625L643.5 2.40625L647.0156 11.0L645.7344 11.0L644.71875 8.390625L641.1406 8.390625L640.1875 11.0L638.9844 11.0ZM641.46875 7.46875L644.375 7.46875L643.4844 5.09375Q643.0625 4.015625 642.875 3.3125Q642.7031 4.140625 642.40625 4.953125L641.46875 7.46875ZM646.375 9.140625L647.40625 8.984375Q647.5 9.609375 647.8906 9.9375Q648.2969 10.265625 649.03125 10.265625Q649.75 10.265625 650.09375 9.984375Q650.4531 9.6875 650.4531 9.28125Q650.4531 8.921875 650.1406 8.71875Q649.9219 8.578125 649.0625 8.359375Q647.90625 8.0625 647.4531 7.859375Q647.0156 7.640625 646.78125 7.265625Q646.5469 6.890625 646.5469 6.421875Q646.5469 6.015625 646.7344 5.65625Q646.9219 5.296875 647.25 5.0625Q647.5 4.890625 647.9219 4.765625Q648.34375 4.640625 648.84375 4.640625Q649.5625 4.640625 650.1094 4.859375Q650.6719 5.0625 650.9375 5.421875Q651.2031 5.78125 651.2969 6.375L650.2656 6.515625Q650.2031 6.046875 649.8594 5.78125Q649.53125 5.5 648.90625 5.5Q648.1875 5.5 647.875 5.75Q647.5625 5.984375 647.5625 6.3125Q647.5625 6.515625 647.6875 6.671875Q647.8281 6.84375 648.09375 6.953125Q648.25 7.015625 649.03125 7.21875Q650.15625 7.53125 650.59375 7.71875Q651.03125 7.90625 651.28125 8.265625Q651.53125 8.625 651.53125 9.171875Q651.53125 9.703125 651.21875 10.171875Q650.9219 10.625 650.34375 10.890625Q649.7656 11.140625 649.03125 11.140625Q647.8125 11.140625 647.1719 10.640625Q646.5469 10.125 646.375 9.140625ZM653.375 9.140625L654.40625 8.984375Q654.5 9.609375 654.8906 9.9375Q655.2969 10.265625 656.03125 10.265625Q656.75 10.265625 657.09375 9.984375Q657.4531 9.6875 657.4531 9.28125Q657.4531 8.921875 657.1406 8.71875Q656.9219 8.578125 656.0625 8.359375Q654.90625 8.0625 654.4531 7.859375Q654.0156 7.640625 653.78125 7.265625Q653.5469 6.890625 653.5469 6.421875Q653.5469 6.015625 653.7344 5.65625Q653.9219 5.296875 654.25 5.0625Q654.5 4.890625 654.9219 4.765625Q655.34375 4.640625 655.84375 4.640625Q656.5625 4.640625 657.1094 4.859375Q657.6719 5.0625 657.9375 5.421875Q658.2031 5.78125 658.2969 6.375L657.2656 6.515625Q657.2031 6.046875 656.8594 5.78125Q656.53125 5.5 655.90625 5.5Q655.1875 5.5 654.875 5.75Q654.5625 5.984375 654.5625 6.3125Q654.5625 6.515625 654.6875 6.671875Q654.8281 6.84375 655.09375 6.953125Q655.25 7.015625 656.03125 7.21875Q657.15625 7.53125 657.59375 7.71875Q658.03125 7.90625 658.28125 8.265625Q658.53125 8.625 658.53125 9.171875Q658.53125 9.703125 658.21875 10.171875Q657.9219 10.625 657.34375 10.890625Q656.7656 11.140625 656.03125 11.140625Q654.8125 11.140625 654.1719 10.640625Q653.5469 10.125 653.375 9.140625ZM665.0469 9.0L666.1406 9.125Q665.8906 10.078125 665.1875 10.609375Q664.4844 11.140625 663.40625 11.140625Q662.0469 11.140625 661.2344 10.296875Q660.4375 9.453125 660.4375 7.9375Q660.4375 6.375 661.25 5.515625Q662.0625 4.640625 663.34375 4.640625Q664.59375 4.640625 665.375 5.484375Q666.1719 6.328125 666.1719 7.875Q666.1719 7.96875 666.1719 8.15625L661.53125 8.15625Q661.59375 9.1875 662.1094 9.734375Q662.625 10.265625 663.40625 10.265625Q663.9844 10.265625 664.3906 9.96875Q664.8125 9.65625 665.0469 9.0ZM661.59375 7.296875L665.0625 7.296875Q665.0 6.5 664.6719 6.109375Q664.15625 5.5 663.3594 5.5Q662.625 5.5 662.125 5.984375Q661.6406 6.46875 661.59375 7.296875ZM667.375 9.140625L668.40625 8.984375Q668.5 9.609375 668.8906 9.9375Q669.2969 10.265625 670.03125 10.265625Q670.75 10.265625 671.09375 9.984375Q671.4531 9.6875 671.4531 9.28125Q671.4531 8.921875 671.1406 8.71875Q670.9219 8.578125 670.0625 8.359375Q668.90625 8.0625 668.4531 7.859375Q668.0156 7.640625 667.78125 7.265625Q667.5469 6.890625 667.5469 6.421875Q667.5469 6.015625 667.7344 5.65625Q667.9219 5.296875 668.25 5.0625Q668.5 4.890625 668.9219 4.765625Q669.34375 4.640625 669.84375 4.640625Q670.5625 4.640625 671.1094 4.859375Q671.6719 5.0625 671.9375 5.421875Q672.2031 5.78125 672.2969 6.375L671.2656 6.515625Q671.2031 6.046875 670.8594 5.78125Q670.53125 5.5 669.90625 5.5Q669.1875 5.5 668.875 5.75Q668.5625 5.984375 668.5625 6.3125Q668.5625 6.515625 668.6875 6.671875Q668.8281 6.84375 669.09375 6.953125Q669.25 7.015625 670.03125 7.21875Q671.15625 7.53125 671.59375 7.71875Q672.03125 7.90625 672.28125 8.265625Q672.53125 8.625 672.53125 9.171875Q672.53125 9.703125 672.21875 10.171875Q671.9219 10.625 671.34375 10.890625Q670.7656 11.140625 670.03125 11.140625Q668.8125 11.140625 668.1719 10.640625Q667.5469 10.125 667.375 9.140625ZM674.375 9.140625L675.40625 8.984375Q675.5 9.609375 675.8906 9.9375Q676.2969 10.265625 677.03125 10.265625Q677.75 10.265625 678.09375 9.984375Q678.4531 9.6875 678.4531 9.28125Q678.4531 8.921875 678.1406 8.71875Q677.9219 8.578125 677.0625 8.359375Q675.90625 8.0625 675.4531 7.859375Q675.0156 7.640625 674.78125 7.265625Q674.5469 6.890625 674.5469 6.421875Q674.5469 6.015625 674.7344 5.65625Q674.9219 5.296875 675.25 5.0625Q675.5 4.890625 675.9219 4.765625Q676.34375 4.640625 676.84375 4.640625Q677.5625 4.640625 678.1094 4.859375Q678.6719 5.0625 678.9375 5.421875Q679.2031 5.78125 679.2969 6.375L678.2656 6.515625Q678.2031 6.046875 677.8594 5.78125Q677.53125 5.5 676.90625 5.5Q676.1875 5.5 675.875 5.75Q675.5625 5.984375 675.5625 6.3125Q675.5625 6.515625 675.6875 6.671875Q675.8281 6.84375 676.09375 6.953125Q676.25 7.015625 677.03125 7.21875Q678.15625 7.53125 678.59375 7.71875Q679.03125 7.90625 679.28125 8.265625Q679.53125 8.625 679.53125 9.171875Q679.53125 9.703125 679.21875 10.171875Q678.9219 10.625 678.34375 10.890625Q677.7656 11.140625 677.03125 11.140625Q675.8125 11.140625 675.1719 10.640625Q674.5469 10.125 674.375 9.140625ZM681.7969 11.0L681.7969 4.78125L682.7344 4.78125L682.7344 5.65625Q683.03125 5.1875 683.5156 4.921875Q684.0 4.640625 684.625 4.640625Q685.3125 4.640625 685.75 4.921875Q686.2031 5.203125 686.375 5.71875Q687.125 4.640625 688.2969 4.640625Q689.2344 4.640625 689.71875 5.15625Q690.21875 5.65625 690.21875 6.734375L690.21875 11.0L689.1719 11.0L689.1719 7.078125Q689.1719 6.453125 689.0625 6.171875Q688.96875 5.890625 688.7031 5.71875Q688.4375 5.546875 688.0625 5.546875Q687.40625 5.546875 686.96875 5.984375Q686.5469 6.421875 686.5469 7.390625L686.5469 11.0L685.4844 11.0L685.4844 6.953125Q685.4844 6.25 685.21875 5.90625Q684.96875 5.546875 684.3906 5.546875Q683.9375 5.546875 683.5625 5.78125Q683.1875 6.015625 683.0156 6.46875Q682.84375 6.921875 682.84375 7.765625L682.84375 11.0L681.7969 11.0ZM697.0469 9.0L698.1406 9.125Q697.8906 10.078125 697.1875 10.609375Q696.4844 11.140625 695.40625 11.140625Q694.0469 11.140625 693.2344 10.296875Q692.4375 9.453125 692.4375 7.9375Q692.4375 6.375 693.25 5.515625Q694.0625 4.640625 695.34375 4.640625Q696.59375 4.640625 697.375 5.484375Q698.1719 6.328125 698.1719 7.875Q698.1719 7.96875 698.1719 8.15625L693.53125 8.15625Q693.59375 9.1875 694.1094 9.734375Q694.625 10.265625 695.40625 10.265625Q695.9844 10.265625 696.3906 9.96875Q696.8125 9.65625 697.0469 9.0ZM693.59375 7.296875L697.0625 7.296875Q697.0 6.5 696.6719 6.109375Q696.15625 5.5 695.3594 5.5Q694.625 5.5 694.125 5.984375Q693.6406 6.46875 693.59375 7.296875ZM699.7969 11.0L699.7969 4.78125L700.7344 4.78125L700.7344 5.65625Q701.4219 4.640625 702.71875 4.640625Q703.28125 4.640625 703.75 4.84375Q704.2344 5.046875 704.46875 5.375Q704.7031 5.703125 704.7969 6.140625Q704.84375 6.4375 704.84375 7.171875L704.84375 11.0L703.7969 11.0L703.7969 7.21875Q703.7969 6.5625 703.6719 6.25Q703.5469 5.9375 703.2344 5.75Q702.9219 5.546875 702.5 5.546875Q701.8281 5.546875 701.3281 5.984375Q700.84375 6.40625 700.84375 7.59375L700.84375 11.0L699.7969 11.0ZM709.09375 10.0625L709.25 10.984375Q708.7969 11.078125 708.4531 11.078125Q707.875 11.078125 707.5625 10.90625Q707.25 10.71875 707.1094 10.421875Q706.9844 10.125 706.9844 9.171875L706.9844 5.59375L706.21875 5.59375L706.21875 4.78125L706.9844 4.78125L706.9844 3.234375L708.03125 2.609375L708.03125 4.78125L709.09375 4.78125L709.09375 5.59375L708.03125 5.59375L708.03125 9.234375Q708.03125 9.6875 708.0781 9.8125Q708.1406 9.9375 708.2656 10.015625Q708.3906 10.09375 708.625 10.09375Q708.8125 10.09375 709.09375 10.0625ZM712.375 9.140625L713.40625 8.984375Q713.5 9.609375 713.8906 9.9375Q714.2969 10.265625 715.03125 10.265625Q715.75 10.265625 716.09375 9.984375Q716.4531 9.6875 716.4531 9.28125Q716.4531 8.921875 716.1406 8.71875Q715.9219 8.578125 715.0625 8.359375Q713.90625 8.0625 713.4531 7.859375Q713.0156 7.640625 712.78125 7.265625Q712.5469 6.890625 712.5469 6.421875Q712.5469 6.015625 712.7344 5.65625Q712.9219 5.296875 713.25 5.0625Q713.5 4.890625 713.9219 4.765625Q714.34375 4.640625 714.84375 4.640625Q715.5625 4.640625 716.1094 4.859375Q716.6719 5.0625 716.9375 5.421875Q717.2031 5.78125 717.2969 6.375L716.2656 6.515625Q716.2031 6.046875 715.8594 5.78125Q715.53125 5.5 714.90625 5.5Q714.1875 5.5 713.875 5.75Q713.5625 5.984375 713.5625 6.3125Q713.5625 6.515625 713.6875 6.671875Q713.8281 6.84375 714.09375 6.953125Q714.25 7.015625 715.03125 7.21875Q716.15625 7.53125 716.59375 7.71875Q717.03125 7.90625 717.28125 8.265625Q717.53125 8.625 717.53125 9.171875Q717.53125 9.703125 717.21875 10.171875Q716.9219 10.625 716.34375 10.890625Q715.7656 11.140625 715.03125 11.140625Q713.8125 11.140625 713.1719 10.640625Q712.5469 10.125 712.375 9.140625ZM723.8594 8.71875L724.8906 8.859375Q724.71875 9.921875 724.0156 10.53125Q723.3125 11.140625 722.2969 11.140625Q721.0156 11.140625 720.2344 10.3125Q719.46875 9.46875 719.46875 7.90625Q719.46875 6.90625 719.7969 6.15625Q720.1406 5.390625 720.8125 5.015625Q721.5 4.640625 722.3125 4.640625Q723.3125 4.640625 723.9531 5.15625Q724.6094 5.65625 724.7969 6.609375L723.7656 6.765625Q723.625 6.140625 723.25 5.828125Q722.875 5.5 722.34375 5.5Q721.5469 5.5 721.0469 6.078125Q720.5469 6.640625 720.5469 7.875Q720.5469 9.140625 721.03125 9.703125Q721.5156 10.265625 722.28125 10.265625Q722.90625 10.265625 723.3125 9.890625Q723.7344 9.515625 723.8594 8.71875ZM725.40625 7.890625Q725.40625 6.15625 726.3594 5.328125Q727.15625 4.640625 728.3125 4.640625Q729.59375 4.640625 730.40625 5.484375Q731.2344 6.3125 731.2344 7.796875Q731.2344 9.0 730.875 9.6875Q730.5156 10.375 729.8125 10.765625Q729.125 11.140625 728.3125 11.140625Q727.0156 11.140625 726.2031 10.3125Q725.40625 9.46875 725.40625 7.890625ZM726.4844 7.890625Q726.4844 9.078125 727.0 9.671875Q727.53125 10.265625 728.3125 10.265625Q729.1094 10.265625 729.625 9.671875Q730.1406 9.078125 730.1406 7.859375Q730.1406 6.703125 729.6094 6.109375Q729.09375 5.515625 728.3125 5.515625Q727.53125 5.515625 727.0 6.109375Q726.4844 6.6875 726.4844 7.890625ZM732.78125 11.0L732.78125 4.78125L733.7344 4.78125L733.7344 5.71875Q734.09375 5.0625 734.3906 4.859375Q734.7031 4.640625 735.0781 4.640625Q735.6094 4.640625 736.15625 4.96875L735.7969 5.953125Q735.40625 5.71875 735.03125 5.71875Q734.6719 5.71875 734.3906 5.9375Q734.125 6.140625 734.0156 6.515625Q733.8281 7.078125 733.8281 7.734375L733.8281 11.0L732.78125 11.0ZM741.0469 9.0L742.1406 9.125Q741.8906 10.078125 741.1875 10.609375Q740.4844 11.140625 739.40625 11.140625Q738.0469 11.140625 737.2344 10.296875Q736.4375 9.453125 736.4375 7.9375Q736.4375 6.375 737.25 5.515625Q738.0625 4.640625 739.34375 4.640625Q740.59375 4.640625 741.375 5.484375Q742.1719 6.328125 742.1719 7.875Q742.1719 7.96875 742.1719 8.15625L737.53125 8.15625Q737.59375 9.1875 738.1094 9.734375Q738.625 10.265625 739.40625 10.265625Q739.9844 10.265625 740.3906 9.96875Q740.8125 9.65625 741.0469 9.0ZM737.59375 7.296875L741.0625 7.296875Q741.0 6.5 740.6719 6.109375Q740.15625 5.5 739.3594 5.5Q738.625 5.5 738.125 5.984375Q737.6406 6.46875 737.59375 7.296875ZM743.375 9.140625L744.40625 8.984375Q744.5 9.609375 744.8906 9.9375Q745.2969 10.265625 746.03125 10.265625Q746.75 10.265625 747.09375 9.984375Q747.4531 9.6875 747.4531 9.28125Q747.4531 8.921875 747.1406 8.71875Q746.9219 8.578125 746.0625 8.359375Q744.90625 8.0625 744.4531 7.859375Q744.0156 7.640625 743.78125 7.265625Q743.5469 6.890625 743.5469 6.421875Q743.5469 6.015625 743.7344 5.65625Q743.9219 5.296875 744.25 5.0625Q744.5 4.890625 744.9219 4.765625Q745.34375 4.640625 745.84375 4.640625Q746.5625 4.640625 747.1094 4.859375Q747.6719 5.0625 747.9375 5.421875Q748.2031 5.78125 748.2969 6.375L747.2656 6.515625Q747.2031 6.046875 746.8594 5.78125Q746.53125 5.5 745.90625 5.5Q745.1875 5.5 744.875 5.75Q744.5625 5.984375 744.5625 6.3125Q744.5625 6.515625 744.6875 6.671875Q744.8281 6.84375 745.09375 6.953125Q745.25 7.015625 746.03125 7.21875Q747.15625 7.53125 747.59375 7.71875Q748.03125 7.90625 748.28125 8.265625Q748.53125 8.625 748.53125 9.171875Q748.53125 9.703125 748.21875 10.171875Q747.9219 10.625 747.34375 10.890625Q746.7656 11.140625 746.03125 11.140625Q744.8125 11.140625 744.1719 10.640625Q743.5469 10.125 743.375 9.140625Z" fill-rule="nonzero"/></svg>